<svg width="16" height="13" viewBox="0 0 16 13" version="1.1" xmlns="http://www.w3.org/2000/svg" xmlns:xlink="http://www.w3.org/1999/xlink">
<title>Line 2</title>
<desc>Created using Figma</desc>
<g id="Canvas" transform="translate(-135 -479)">
<g id="Line 2">
<use xlink:href="#path0_stroke" transform="translate(136 480.5)" fill="#FFC125"/>
</g>
</g>
<defs>
<path id="path0_stroke" d="M 0 4C -0.552285 4 -1 4.44772 -1 5C -1 5.55228 -0.552285 6 0 6L 0 4ZM 13 5L 13.7071 5.70711L 14.4142 5L 13.7071 4.29289L 13 5ZM 8.70711 -0.707107C 8.31658 -1.09763 7.68342 -1.09763 7.29289 -0.707107C 6.90237 -0.316583 6.90237 0.316583 7.29289 0.707107L 8.70711 -0.707107ZM 7.29289 9.29289C 6.90237 9.68342 6.90237 10.3166 7.29289 10.7071C 7.68342 11.0976 8.31658 11.0976 8.70711 10.7071L 7.29289 9.29289ZM 0 6L 13 6L 13 4L 0 4L 0 6ZM 13.7071 4.29289L 8.70711 -0.707107L 7.29289 0.707107L 12.2929 5.70711L 13.7071 4.29289ZM 12.2929 4.29289L 7.29289 9.29289L 8.70711 10.7071L 13.7071 5.70711L 12.2929 4.29289Z"/>
</defs>
</svg>
