<svg viewBox="0 0 342 458" version="1.1" xmlns="http://www.w3.org/2000/svg" xmlns:xlink="http://www.w3.org/1999/xlink">
<title>Group</title>
<desc>Created using Figma</desc>
<g id="Canvas" transform="translate(-3205 -746)">
<g id="Group">
<g id="Obelisk">
<g id="Rectangle 3.3">
<use xlink:href="#path0_fill" transform="translate(3327.37 747)" fill="url(#paint0_linear)"/>
<use xlink:href="#path0_fill" transform="translate(3327.37 747)" fill="url(#paint1_linear)"/>
</g>
<g id="Rectangle 3.2">
<use xlink:href="#path1_stroke" transform="translate(3327.37 747)" fill="url(#paint2_linear)"/>
</g>
</g>
<g id="Obelisk">
<g id="Rectangle 3.3">
<use xlink:href="#path2_fill" transform="matrix(-1 0 0 1 3257.37 903)" fill="url(#paint3_linear)"/>
<use xlink:href="#path2_fill" transform="matrix(-1 0 0 1 3257.37 903)" fill="url(#paint4_linear)"/>
</g>
<g id="Rectangle 3.2">
<use xlink:href="#path3_stroke" transform="matrix(-1 0 0 1 3257.37 903)" fill="url(#paint5_linear)"/>
</g>
</g>
<g id="Obelisk">
<g id="Rectangle 3.3">
<use xlink:href="#path2_fill" transform="matrix(-1 0 0 1 3545.37 903)" fill="url(#paint6_linear)"/>
<use xlink:href="#path2_fill" transform="matrix(-1 0 0 1 3545.37 903)" fill="url(#paint7_linear)"/>
</g>
<g id="Rectangle 3.2">
<use xlink:href="#path3_stroke" transform="matrix(-1 0 0 1 3545.37 903)" fill="url(#paint8_linear)"/>
</g>
</g>
</g>
</g>
<defs>
<linearGradient id="paint0_linear" x1="0" y1="0" x2="1" y2="0" gradientUnits="userSpaceOnUse" gradientTransform="matrix(5.93954e-15 456 -97 2.79219e-14 97 -2.79219e-14)">
<stop offset="0.773481" stop-color="#2A2D32"/>
<stop offset="1" stop-color="#2A2D32" stop-opacity="0.02"/>
</linearGradient>
<linearGradient id="paint1_linear" x1="0" y1="0" x2="1" y2="0" gradientUnits="userSpaceOnUse" gradientTransform="matrix(5.93954e-15 456 -97 2.79219e-14 97 -2.79219e-14)">
<stop offset="0" stop-color="#FFFFFF" stop-opacity="0.02"/>
<stop offset="1" stop-color="#FFFFFF" stop-opacity="0"/>
</linearGradient>
<linearGradient id="paint2_linear" x1="0" y1="0" x2="1" y2="0" gradientUnits="userSpaceOnUse" gradientTransform="matrix(96.862 456.416 -97.0886 20.4989 49.1653 -10.6659)">
<stop offset="0" stop-color="#0072FF"/>
<stop offset="1" stop-color="#00C3FF"/>
</linearGradient>
<linearGradient id="paint3_linear" x1="0" y1="0" x2="1" y2="0" gradientUnits="userSpaceOnUse" gradientTransform="matrix(3.12285e-15 242 -51 1.48182e-14 51 -1.48182e-14)">
<stop offset="0.773481" stop-color="#2A2D32"/>
<stop offset="1" stop-color="#2A2D32" stop-opacity="0.02"/>
</linearGradient>
<linearGradient id="paint4_linear" x1="0" y1="0" x2="1" y2="0" gradientUnits="userSpaceOnUse" gradientTransform="matrix(3.12285e-15 242 -51 1.48182e-14 51 -1.48182e-14)">
<stop offset="0" stop-color="#FFFFFF" stop-opacity="0.02"/>
<stop offset="1" stop-color="#FFFFFF" stop-opacity="0"/>
</linearGradient>
<linearGradient id="paint5_linear" x1="0" y1="0" x2="1" y2="0" gradientUnits="userSpaceOnUse" gradientTransform="matrix(50.9274 242.221 -51.0466 10.8788 25.8498 -5.66041)">
<stop offset="0" stop-color="#0072FF"/>
<stop offset="1" stop-color="#00C3FF"/>
</linearGradient>
<linearGradient id="paint6_linear" x1="0" y1="0" x2="1" y2="0" gradientUnits="userSpaceOnUse" gradientTransform="matrix(3.12285e-15 242 -51 1.48182e-14 51 -1.48182e-14)">
<stop offset="0.773481" stop-color="#2A2D32"/>
<stop offset="1" stop-color="#2A2D32" stop-opacity="0.02"/>
</linearGradient>
<linearGradient id="paint7_linear" x1="0" y1="0" x2="1" y2="0" gradientUnits="userSpaceOnUse" gradientTransform="matrix(3.12285e-15 242 -51 1.48182e-14 51 -1.48182e-14)">
<stop offset="0" stop-color="#FFFFFF" stop-opacity="0.02"/>
<stop offset="1" stop-color="#FFFFFF" stop-opacity="0"/>
</linearGradient>
<linearGradient id="paint8_linear" x1="0" y1="0" x2="1" y2="0" gradientUnits="userSpaceOnUse" gradientTransform="matrix(50.9274 242.221 -51.0466 10.8788 25.8498 -5.66041)">
<stop offset="0" stop-color="#0072FF"/>
<stop offset="1" stop-color="#00C3FF"/>
</linearGradient>
<path id="path0_fill" d="M 97 42.3761L 97 433.952C 97 434.753 96.5223 435.477 95.786 435.792L 48.5 456L 1.21403 435.792C 0.477665 435.477 0 434.753 0 433.952L 0 42.3761C 0 41.7913 0.255972 41.2358 0.700531 40.8558L 48.5 0L 96.2995 40.8558C 96.744 41.2358 97 41.7913 97 42.3761Z"/>
<path id="path1_stroke" d="M 96 435.273C 96 435.825 96.4477 436.273 97 436.273C 97.5523 436.273 98 435.825 98 435.273L 96 435.273ZM -1 435.273C -1 435.825 -0.552285 436.273 0 436.273C 0.552285 436.273 1 435.825 1 435.273L -1 435.273ZM 48.5 0L 49.1497 -0.760161C 48.7756 -1.07995 48.2244 -1.07995 47.8503 -0.760161L 48.5 0ZM 47.5 456C 47.5 456.552 47.9477 457 48.5 457C 49.0523 457 49.5 456.552 49.5 456L 47.5 456ZM 96.2995 40.8558L 95.6497 41.6159L 96.2995 40.8558ZM 96 42.3761L 96 435.273L 98 435.273L 98 42.3761L 96 42.3761ZM 1 435.273L 1 42.3761L -1 42.3761L -1 435.273L 1 435.273ZM 1.35027 41.6159L 49.1497 0.760161L 47.8503 -0.760161L 0.0507959 40.0956L 1.35027 41.6159ZM 47.8503 0.760161L 95.6497 41.6159L 96.9492 40.0956L 49.1497 -0.760161L 47.8503 0.760161ZM 47.5 0L 47.5 456L 49.5 456L 49.5 0L 47.5 0ZM 98 42.3761C 98 41.4989 97.616 40.6656 96.9492 40.0956L 95.6497 41.6159C 95.872 41.8059 96 42.0837 96 42.3761L 98 42.3761ZM 1 42.3761C 1 42.0837 1.12799 41.8059 1.35027 41.6159L 0.0507959 40.0956C -0.616042 40.6656 -1 41.4989 -1 42.3761L 1 42.3761Z"/>
<path id="path2_fill" d="M 51 22.916L 51 229.685C 51 230.483 50.5252 231.205 49.7922 231.521L 25.5 242L 1.20782 231.521C 0.474774 231.205 0 230.483 0 229.685L 0 22.916C 0 22.3344 0.253171 21.7816 0.693534 21.4017L 25.5 0L 50.3065 21.4017C 50.7468 21.7816 51 22.3344 51 22.916Z"/>
<path id="path3_stroke" d="M 50 231C 50 231.552 50.4477 232 51 232C 51.5523 232 52 231.552 52 231L 50 231ZM -1 231C -1 231.552 -0.552285 232 0 232C 0.552285 232 1 231.552 1 231L -1 231ZM 25.5 0L 26.1532 -0.757157C 25.7779 -1.08095 25.2221 -1.08095 24.8468 -0.757157L 25.5 0ZM 24.5 242C 24.5 242.552 24.9477 243 25.5 243C 26.0523 243 26.5 242.552 26.5 242L 24.5 242ZM 50.3065 21.4017L 49.6532 22.1588L 50.3065 21.4017ZM 0.693534 21.4017L 0.0403003 20.6445L 0.693534 21.4017ZM 50 22.916L 50 231L 52 231L 52 22.916L 50 22.916ZM 1 231L 1 22.916L -1 22.916L -1 231L 1 231ZM 1.34677 22.1588L 26.1532 0.757157L 24.8468 -0.757157L 0.0403003 20.6445L 1.34677 22.1588ZM 24.8468 0.757157L 49.6532 22.1588L 50.9597 20.6445L 26.1532 -0.757157L 24.8468 0.757157ZM 24.5 0L 24.5 242L 26.5 242L 26.5 0L 24.5 0ZM 52 22.916C 52 22.0436 51.6202 21.2144 50.9597 20.6445L 49.6532 22.1588C 49.8734 22.3488 50 22.6252 50 22.916L 52 22.916ZM 1 22.916C 1 22.6252 1.12659 22.3488 1.34677 22.1588L 0.0403003 20.6445C -0.620243 21.2144 -1 22.0436 -1 22.916L 1 22.916Z"/>
</defs>
</svg>
