<svg width="137" height="95" viewBox="0 0 137 95" version="1.1" xmlns="http://www.w3.org/2000/svg" xmlns:xlink="http://www.w3.org/1999/xlink">
<title>Icon-Privacy</title>
<desc>Created using Figma</desc>
<g id="Canvas" transform="translate(-3288 -1716)">
<g id="Icon-Privacy">
<g id="Bolt">
<g id="Lines">
<g id="Line">
<use xlink:href="#path0_stroke" transform="matrix(-1 1.22465e-16 -1.22465e-16 -1 3363 1737)" fill="#F0F0F0"/>
</g>
<g id="Line">
<use xlink:href="#path0_stroke" transform="matrix(-1 1.22465e-16 -1.22465e-16 -1 3328 1757)" fill="#F0F0F0"/>
</g>
<g id="Line">
<use xlink:href="#path1_stroke" transform="matrix(-1 1.22465e-16 -1.22465e-16 -1 3371 1777)" fill="#F0F0F0"/>
</g>
<g id="3s">
<use xlink:href="#path2_fill" transform="translate(3335 1751)" fill="#F0F0F0"/>
<use xlink:href="#path3_fill" transform="translate(3335 1751)" fill="#F0F0F0"/>
</g>
</g>
<g id="Vector">
<use xlink:href="#path4_stroke" transform="translate(3370 1717)" fill="url(#paint5_linear)"/>
</g>
</g>
</g>
</g>
<defs>
<linearGradient id="paint5_linear" x1="0" y1="0" x2="1" y2="0" gradientUnits="userSpaceOnUse" gradientTransform="matrix(3.24531e-15 93 -53 5.69461e-15 53 2.27516e-22)">
<stop offset="0" stop-color="#0072FF"/>
<stop offset="1" stop-color="#00C3FF"/>
</linearGradient>
<path id="path0_stroke" d="M 1 -2C 0.447715 -2 0 -1.55228 0 -1C 0 -0.447715 0.447715 0 1 0L 1 -2ZM 39 0C 39.5523 0 40 -0.447715 40 -1C 40 -1.55228 39.5523 -2 39 -2L 39 0ZM 1 0L 39 0L 39 -2L 1 -2L 1 0Z"/>
<path id="path1_stroke" d="M 1 -2C 0.447715 -2 0 -1.55228 0 -1C 0 -0.447715 0.447715 0 1 0L 1 -2ZM 69 0C 69.5523 0 70 -0.447715 70 -1C 70 -1.55228 69.5523 -2 69 -2L 69 0ZM 1 0L 69 0L 69 -2L 1 -2L 1 0Z"/>
<path id="path2_fill" d="M 0 11.8507C 1.22295 13.231 2.86013 14 4.57621 14C 7.43634 14 9.72445 12.0479 9.72445 9.12958C 9.72445 7.03944 8.4226 5.3831 6.52899 4.65352L 9.03407 1.57746L 9.03407 0L 0.650927 0L 0.650927 2.3662L 5.26659 2.3662L 2.68261 5.42253L 2.68261 7C 3.19546 6.74366 3.78721 6.60563 4.33951 6.60563C 5.87806 6.60563 7.06157 7.69014 7.06157 9.12958C 7.06157 10.6085 5.77944 11.6338 4.47759 11.6338C 3.43216 11.6338 2.48536 11.062 1.91333 10.2535L 0 11.8507Z"/>
<path id="path3_fill" d="M 11.3467 12.7183C 12.471 13.5465 13.8715 14 15.1931 14C 17.205 14 19 12.8761 19 11.0423C 19 7.72958 14.3646 8.22254 14.3646 6.98028C 14.3646 6.48732 14.9564 6.21127 15.6665 6.21127C 16.3568 6.21127 17.0078 6.50704 17.5009 6.86197L 18.7041 5.00845C 18.0729 4.51549 16.7119 4.04225 15.4692 4.04225C 13.5756 4.04225 11.8004 5.18591 11.8004 7.01972C 11.8004 10.0958 16.4357 9.5831 16.4357 11.0225C 16.4357 11.4958 15.9032 11.831 15.2128 11.831C 14.2463 11.831 13.2403 11.4761 12.5894 10.8845L 11.3467 12.7183Z"/>
<path id="path4_stroke" d="M 9.46429 0L 9.46429 -1C 8.99865 -1 8.59464 -0.678623 8.48991 -0.224921L 9.46429 0ZM 43.5357 0L 44.4614 0.378347C 44.5874 0.0699598 44.5516 -0.280947 44.3659 -0.557518C 44.1801 -0.834089 43.8689 -1 43.5357 -1L 43.5357 0ZM 32.5 27L 31.5743 26.6217C 31.4483 26.93 31.4841 27.2809 31.6698 27.5575C 31.8556 27.8341 32.1668 28 32.5 28L 32.5 27ZM 53.3214 27L 54.0993 27.6284C 54.3414 27.3287 54.3898 26.9166 54.2238 26.569C 54.0577 26.2213 53.7067 26 53.3214 26L 53.3214 27ZM 0 93L -0.93968 92.6579C -1.10688 93.1173 -0.917517 93.6302 -0.491944 93.8706C -0.0663702 94.1111 0.470675 94.0087 0.777862 93.6284L 0 93ZM 18.9286 41L 19.8683 41.3421C 19.9799 41.0355 19.9349 40.6937 19.7477 40.4264C 19.5606 40.1592 19.2548 40 18.9286 40L 18.9286 41ZM 0 41L -0.974377 40.7751C -1.04292 41.072 -0.972318 41.384 -0.782599 41.6225C -0.59288 41.861 -0.304757 42 0 42L 0 41ZM 9.46429 1L 43.5357 1L 43.5357 -1L 9.46429 -1L 9.46429 1ZM 42.6101 -0.378347L 31.5743 26.6217L 33.4257 27.3783L 44.4614 0.378347L 42.6101 -0.378347ZM 32.5 28L 53.3214 28L 53.3214 26L 32.5 26L 32.5 28ZM 52.5436 26.3716L -0.777862 92.3716L 0.777862 93.6284L 54.0993 27.6284L 52.5436 26.3716ZM 0.93968 93.3421L 19.8683 41.3421L 17.9889 40.6579L -0.93968 92.6579L 0.93968 93.3421ZM 18.9286 40L 0 40L 0 42L 18.9286 42L 18.9286 40ZM 0.974377 41.2249L 10.4387 0.224921L 8.48991 -0.224921L -0.974377 40.7751L 0.974377 41.2249Z"/>
</defs>
</svg>
