<svg width="137" height="91" viewBox="0 0 137 91" version="1.1" xmlns="http://www.w3.org/2000/svg" xmlns:xlink="http://www.w3.org/1999/xlink">
<title>Icon-Dolphin</title>
<desc>Created using Figma</desc>
<g id="Canvas" transform="translate(-3677 -2250)">
<g id="Icon-Dolphin">
<g id="Group">
<g id="Union">
<use xlink:href="#path0_fill" transform="translate(3706 2250)" fill="url(#paint0_linear)"/>
</g>
<g id="Ellipse 3">
<use xlink:href="#path1_fill" transform="translate(3714.34 2290)" fill="#F0F0F0"/>
</g>
</g>
<g id="Vector">
<use xlink:href="#path2_stroke" transform="translate(3678 2329)" fill="#F0F0F0"/>
</g>
</g>
</g>
<defs>
<linearGradient id="paint0_linear" x1="0" y1="0" x2="1" y2="0" gradientUnits="userSpaceOnUse" gradientTransform="matrix(37.2989 50.4651 -37.6893 80.7086 35.1031 -40.3545)">
<stop offset="0" stop-color="#0072FF"/>
<stop offset="1" stop-color="#00C3FF"/>
</linearGradient>
<path id="path0_fill" fill-rule="evenodd" d="M 22.6564 5.92916C 20.5705 8.84298 18.2932 13.2031 17.331 19.4372C 17.2822 19.749 17.0891 20.0197 16.8098 20.167C 5.02802 26.3825 -0.269592 40.0617 6.1933 50.4939C 6.43768 50.8886 6.37836 51.3994 6.05023 51.7277L 2.8786 54.8994C 1.70697 56.0708 1.70697 57.9704 2.8786 59.1418C 4.05023 60.3134 5.94965 60.3134 7.12128 59.1418L 9.95038 56.3127C 14.4179 51.3098 18.9081 47.3286 23.2685 44.2646C 23.7082 43.9558 24.3134 44.0498 24.6389 44.4775C 27.4289 48.144 31.1276 49.5251 34.6894 49.903C 32.4555 47.0129 31.0703 43.4726 31.6403 39.8447C 31.6926 39.5136 31.9069 39.2307 32.2114 39.0908C 42.8471 34.2121 52.6396 34.1308 60.5043 35.9731C 57.4838 30.9809 53.726 27.0063 49.7702 23.9909C 41.749 17.8767 33.0527 15.7961 28.0729 16.9731C 27.7978 17.038 27.5082 16.9836 27.2756 16.8234C 27.0429 16.6633 26.8889 16.4121 26.8515 16.132L 25.102 3.0085C 24.4213 3.69307 23.5727 4.64473 22.6564 5.92916ZM 25.843 0.999958L 25.2516 0.193562C 25.5363 -0.0151784 25.9101 -0.0583913 26.2348 0.0800364C 26.5598 0.218464 26.7875 0.517781 26.8342 0.867878L 28.6945 14.821C 34.5065 13.9675 43.1921 16.4619 50.9826 22.4003C 55.5912 25.9133 59.9296 30.6599 63.2348 36.7094C 71.0397 39.0969 76.6201 43.2702 78.6354 45.8903C 78.9721 46.3281 78.8903 46.9558 78.4523 47.2927L 68.4526 54.9848C 68.1701 55.2021 67.7932 55.2526 67.4633 55.1174C 67.1335 54.9819 66.9006 54.6811 66.8522 54.3278C 66.0178 48.2387 64.2429 42.9384 61.8657 38.3908C 54.2224 36.2209 44.3798 35.8606 33.5505 40.6804C 33.2326 44.0822 34.9738 47.5615 37.7092 50.3159C 37.9938 50.6025 38.0781 51.0319 37.9228 51.405C 37.7678 51.7778 37.4035 52.0207 36.9997 52.0207C 32.6948 52.0207 27.5307 50.9677 23.6569 46.4438C 19.6291 49.3606 15.5568 53.0295 11.4238 57.6655C 11.4111 57.6796 11.3981 57.6936 11.3847 57.707L 8.53558 60.5561C 6.58295 62.5087 3.41693 62.5087 1.46429 60.5561C -0.488098 58.6035 -0.488098 55.4377 1.46429 53.4851L 4.08636 50.863C -2.42487 39.4299 3.46478 25.216 15.4365 18.635C 16.5175 12.3388 18.9201 7.72139 21.0295 4.76607C 22.1293 3.23092 23.1884 2.07735 23.9421 1.34273C 24.3276 0.967732 24.6559 0.678181 24.874 0.495075C 24.9872 0.400349 25.082 0.324421 25.1415 0.277546L 25.2175 0.218952L 25.2399 0.202107L 25.2473 0.196736L 25.2497 0.195027C 25.2512 0.193806 25.2516 0.193562 25.843 0.999958ZM 64.5217 39.2448C 66.3481 43.1306 67.7563 47.4992 68.5759 52.3667L 76.3945 46.3525C 74.4316 44.2915 70.2692 41.3147 64.5217 39.2448ZM 79.9865 55.1723C 79.9955 55.1154 79.9999 55.0576 79.9999 54.9997C 79.9999 54.5246 79.728 54.1157 79.3847 53.5996C 79.2624 53.4157 79.1313 53.2185 78.9999 52.9997C 78.8686 53.2185 78.7375 53.4157 78.6152 53.5996C 78.2719 54.1157 77.9999 54.5246 77.9999 54.9997C 77.9999 55.0576 78.0043 55.1154 78.0134 55.1723C 78.0815 55.6086 78.4103 55.9997 78.9999 55.9997C 79.5895 55.9997 79.9184 55.6086 79.9865 55.1723ZM 84.8989 51.8632C 84.707 51.1467 84.2158 50.594 83.5668 49.9961C 83.393 49.8359 83.2077 49.6726 83.0139 49.5017L 82.9855 49.4768C 82.6542 49.1853 82.2985 48.8718 81.9318 48.5173C 81.7914 49.0078 81.6401 49.457 81.499 49.8752C 81.412 50.1328 81.3293 50.3789 81.2553 50.6154C 80.9924 51.4577 80.8432 52.1818 81.0351 52.8986C 81.2941 53.8645 82.1967 54.6579 83.4848 54.3127C 84.7726 53.9677 85.1577 52.8293 84.8989 51.8632Z"/>
<path id="path1_fill" d="M 3 1.5C 3 2.32843 2.32843 3 1.5 3C 0.671573 3 0 2.32843 0 1.5C 0 0.671573 0.671573 0 1.5 0C 2.32843 0 3 0.671573 3 1.5Z"/>
<path id="path2_stroke" d="M 101.042 0.063662L 100.403 -0.706138L 100.393 -0.697732L 101.042 0.063662ZM 101.042 0.0635798L 101.68 0.83336L 101.688 0.826407L 101.042 0.0635798ZM 101.459 0.0633833L 102.107 -0.69801L 102.107 -0.698296L 101.459 0.0633833ZM 135 12C 135.552 12 136 11.5523 136 11C 136 10.4477 135.552 10 135 10L 135 12ZM 0 10C -0.552285 10 -1 10.4477 -1 11C -1 11.5523 -0.552285 12 0 12L 0 10ZM 33.5414 0.0633833L 34.1897 0.824815L 34.1954 0.819855L 33.5414 0.0633833ZM 33.958 0.0633833L 33.3023 0.81845L 33.3097 0.82476L 33.958 0.0633833ZM 67.4994 11L 67.4994 10L 67.4994 10L 67.4994 11ZM 101.68 0.833398L 101.68 0.833316L 100.403 -0.706156L 100.403 -0.706074L 101.68 0.833398ZM 101.688 0.826407C 101.689 0.825654 101.661 0.850055 101.622 0.876215C 101.583 0.90279 101.538 0.92765 101.489 0.948201C 101.387 0.990436 101.302 1 101.25 1L 101.25 -1C 100.822 -1 100.546 -0.827574 100.395 -0.699247L 101.688 0.826407ZM 101.25 1C 101.199 1 101.113 0.990417 101.012 0.948126C 100.963 0.927541 100.918 0.902594 100.878 0.875803C 100.839 0.849342 100.81 0.82465 100.811 0.825063L 102.107 -0.698296C 101.955 -0.827537 101.679 -1 101.25 -1L 101.25 1ZM 100.81 0.824777C 109.193 7.962 121.665 12 135 12L 135 10C 122.029 10 110.051 6.06567 102.107 -0.69801L 100.81 0.824777ZM 0 12C 13.3343 12 25.8069 7.962 34.1897 0.824793L 32.8931 -0.698026C 24.949 6.06568 12.971 10 0 10L 0 12ZM 34.1954 0.819855C 34.1959 0.819455 34.1862 0.827868 34.1732 0.83825C 34.1596 0.849053 34.1427 0.861743 34.1229 0.875141C 34.0822 0.902558 34.0368 0.927728 33.9872 0.948354C 33.8856 0.990663 33.8002 1 33.7497 1L 33.7497 -1C 33.3244 -1 33.0462 -0.830434 32.8874 -0.693088L 34.1954 0.819855ZM 33.7497 1C 33.699 1 33.6134 0.990611 33.5116 0.948113C 33.462 0.927392 33.4164 0.902079 33.3755 0.874431C 33.3555 0.860913 33.3385 0.848086 33.3248 0.837123C 33.3116 0.826578 33.3018 0.81801 33.3023 0.818414L 34.6137 -0.691647C 34.4547 -0.829716 34.1759 -1 33.7497 -1L 33.7497 1ZM 33.3097 0.82476C 41.6917 7.96201 54.1642 12 67.4994 12L 67.4994 10C 54.5275 10 42.5496 6.06567 34.6063 -0.697994L 33.3097 0.82476ZM 67.4993 12C 80.8349 12.0006 93.3075 7.96228 101.69 0.825056L 100.393 -0.697732C 92.4496 6.06595 80.4717 10.0005 67.4994 10L 67.4993 12Z"/>
</defs>
</svg>
