<svg width="167" height="29" viewBox="0 0 167 29" version="1.1" xmlns="http://www.w3.org/2000/svg" xmlns:xlink="http://www.w3.org/1999/xlink">
<title>alphabitlogo</title>
<desc>Created using Figma</desc>
<g id="Canvas" transform="translate(-361 -838)">
<g id="alphabitlogo">
<g id="Shape">
<use xlink:href="#path0_fill" transform="translate(414.155 842.076)" fill="#CECFD0"/>
</g>
<g id="Shape">
<use xlink:href="#path1_fill" transform="translate(433.502 842.945)" fill="#CECFD0"/>
</g>
<g id="Shape">
<use xlink:href="#path2_fill" transform="translate(445.722 842.945)" fill="#CECFD0"/>
</g>
<g id="Shape">
<use xlink:href="#path3_fill" transform="translate(459.706 842.945)" fill="#CECFD0"/>
</g>
<g id="Shape">
<use xlink:href="#path4_fill" transform="translate(475.66 842.143)" fill="#CECFD0"/>
</g>
<g id="Shape">
<use xlink:href="#path5_fill" transform="translate(496.297 842.945)" fill="#CECFD0"/>
</g>
<g id="Shape">
<use xlink:href="#path6_fill" transform="translate(511.232 842.945)" fill="#CECFD0"/>
</g>
<g id="Shape">
<use xlink:href="#path7_fill" transform="translate(519.175 843.012)" fill="#CECFD0"/>
</g>
<g id="Shape">
<use xlink:href="#path8_fill" transform="translate(414.834 861.187)" fill="#CECFD0"/>
</g>
<g id="Shape">
<use xlink:href="#path9_fill" transform="translate(421.215 861.187)" fill="#CECFD0"/>
</g>
<g id="Shape">
<use xlink:href="#path10_fill" transform="translate(424.27 861.12)" fill="#CECFD0"/>
</g>
<g id="Shape">
<use xlink:href="#path11_fill" transform="translate(431.126 861.187)" fill="#CECFD0"/>
</g>
<g id="Shape">
<use xlink:href="#path12_fill" transform="translate(433.978 861.187)" fill="#CECFD0"/>
</g>
<g id="Shape">
<use xlink:href="#path13_fill" transform="translate(438.798 861.187)" fill="#CECFD0"/>
</g>
<g id="Shape">
<use xlink:href="#path14_fill" transform="translate(445.179 861.187)" fill="#CECFD0"/>
</g>
<g id="Shape">
<use xlink:href="#path15_fill" transform="translate(453.122 861.053)" fill="#CECFD0"/>
</g>
<g id="Shape">
<use xlink:href="#path16_fill" transform="translate(459.639 861.12)" fill="#CECFD0"/>
</g>
<g id="Shape">
<use xlink:href="#path17_fill" transform="translate(465.952 861.187)" fill="#CECFD0"/>
</g>
<g id="Shape">
<use xlink:href="#path18_fill" transform="translate(472.198 861.187)" fill="#CECFD0"/>
</g>
<g id="Shape">
<use xlink:href="#path19_fill" transform="translate(478.443 861.187)" fill="#CECFD0"/>
</g>
<g id="Shape">
<use xlink:href="#path20_fill" transform="translate(484.349 861.187)" fill="#CECFD0"/>
</g>
<g id="Shape">
<use xlink:href="#path21_fill" transform="translate(490.323 861.053)" fill="#CECFD0"/>
</g>
<g id="Shape">
<use xlink:href="#path22_fill" transform="translate(496.433 861.12)" fill="#CECFD0"/>
</g>
<g id="Shape">
<use xlink:href="#path23_fill" transform="translate(506.005 861.187)" fill="#CECFD0"/>
</g>
<g id="Shape">
<use xlink:href="#path24_fill" transform="translate(511.436 861.12)" fill="#CECFD0"/>
</g>
<g id="Shape">
<use xlink:href="#path25_fill" transform="translate(517.749 861.187)" fill="#CECFD0"/>
</g>
<g id="Shape">
<use xlink:href="#path26_fill" transform="translate(523.995 861.187)" fill="#CECFD0"/>
</g>
<g id="Shape">
<use xlink:href="#path27_fill" transform="translate(361 846.018)" fill="#CECFD0"/>
</g>
<g id="Shape">
<use xlink:href="#path28_fill" transform="translate(388.969 838)" fill="#CECFD0"/>
</g>
</g>
</g>
<defs>
<path id="path0_fill" d="M 9.91138 11.4263L 3.86951 11.4263L 2.30813 14.8341L 1.997e-08 14.8341L 6.99228 1.35828e-07L 13.713 14.7673L 11.4049 14.7673L 9.91138 11.4263ZM 9.09675 9.42166L 6.99228 4.67742L 4.81992 9.42166L 9.09675 9.42166Z"/>
<path id="path1_fill" d="M 2.17236 1.06797e-07L 2.17236 11.894L 6.31341 11.894L 6.31341 13.8986L 6.3712e-07 13.8986L 6.3712e-07 1.06797e-07L 2.17236 1.06797e-07Z"/>
<path id="path2_fill" d="M 2.10447 8.28571L 2.10447 13.8986L -2.94942e-06 13.8986L -2.94942e-06 1.06797e-07L 2.4439 1.06797e-07C 3.59797 1.06797e-07 4.54838 0.0668201 5.09146 0.267281C 5.70244 0.400921 6.24553 0.735023 6.72073 1.20276C 7.53536 2.00461 7.94269 2.94009 7.94269 4.14286C 7.94269 5.41244 7.53537 6.41475 6.65284 7.14977C 5.77032 7.88479 4.61626 8.28571 3.12276 8.28571L 2.10447 8.28571ZM 2.10447 6.34793L 2.9191 6.34793C 4.8878 6.34793 5.83821 5.6129 5.83821 4.14286C 5.83821 2.73963 4.81992 2.00461 2.78333 2.00461L 2.10447 2.00461L 2.10447 6.34793Z"/>
<path id="path3_fill" d="M 2.10447 5.47926L 8.21423 5.47926L 8.21423 0.0668201L 10.3187 0.0668201L 10.3187 13.9654L 8.21423 13.9654L 8.21423 7.48387L 2.10447 7.48387L 2.10447 13.9654L -1.12523e-06 13.9654L -1.12523e-06 1.06797e-07L 2.10447 1.06797e-07L 2.10447 5.47926Z"/>
<path id="path4_fill" d="M 9.91139 11.3594L 3.86951 11.3594L 2.30813 14.7673L 3.47171e-06 14.7673L 6.99228 -1.18992e-07L 13.713 14.7673L 11.4049 14.7673L 9.91139 11.3594ZM 9.02887 9.35484L 6.92438 4.6106L 4.75204 9.35484L 9.02887 9.35484Z"/>
<path id="path5_fill" d="M 1.71665e-06 13.8986L 1.71665e-06 1.06797e-07L 2.10447 1.06797e-07C 3.05488 1.06797e-07 3.80162 0.0668203 4.34471 0.200461C 4.8878 0.334101 5.36301 0.601382 5.77032 0.935484C 6.17764 1.26958 6.44919 1.73733 6.72073 2.27189C 6.99228 2.80645 7.06016 3.34101 7.06016 3.87558C 7.06016 4.87788 6.65284 5.74654 5.90609 6.41475C 6.65284 6.68203 7.26382 7.08295 7.67113 7.75115C 8.07845 8.35253 8.35001 9.08756 8.35001 9.95622C 8.35001 11.0253 7.94268 11.9608 7.19593 12.6959C 6.72073 13.1636 6.17764 13.4977 5.63455 13.6313C 5.02358 13.8318 4.20894 13.8986 3.25853 13.8986L 1.71665e-06 13.8986ZM 2.17236 6.01382L 2.85122 6.01382C 3.66586 6.01382 4.20895 5.81336 4.61626 5.47926C 4.95569 5.14516 5.15935 4.6106 5.15935 3.9424C 5.15935 3.27419 4.95569 2.80645 4.61626 2.47235C 4.20895 2.13825 3.66585 1.93779 2.98699 1.93779L 2.24024 1.93779L 2.24024 6.01382L 2.17236 6.01382ZM 2.17236 11.9608L 3.46219 11.9608C 4.4126 11.9608 5.15935 11.7604 5.56666 11.4263C 6.04187 11.0253 6.31341 10.4908 6.31341 9.8894C 6.31341 9.28802 6.10976 8.75346 5.63455 8.35253C 5.15935 7.95161 4.4126 7.75115 3.25853 7.75115L 2.17236 7.75115L 2.17236 11.9608Z"/>
<path id="path6_fill" d="M 2.10447 1.06797e-07L 2.10447 13.8986L -3.12607e-06 13.8986L -3.12607e-06 1.06797e-07L 2.10447 1.06797e-07Z"/>
<path id="path7_fill" d="M 5.36301 1.93779L 5.36301 13.8318L 3.25854 13.8318L 3.25854 1.93779L -3.86343e-06 1.93779L -3.86343e-06 -1.48023e-07L 8.62154 -1.48023e-07L 8.62154 1.93779L 5.36301 1.93779Z"/>
<path id="path8_fill" d="M -1.91712e-06 4.74424L -1.91712e-06 1.7738e-07L 1.69715 1.7738e-07C 2.10447 1.7738e-07 2.37602 2.71094e-07 2.57967 0.0668206C 2.85122 0.133641 3.12276 0.26728 3.25853 0.400921C 3.53008 0.601382 3.73374 0.868664 3.80162 1.20277C 3.9374 1.53687 4.00528 1.93779 4.00528 2.33871C 4.00528 2.67281 3.9374 3.00691 3.86951 3.27419C 3.80162 3.54147 3.66585 3.80876 3.53008 3.9424C 3.39431 4.14286 3.25854 4.2765 3.05488 4.34332C 2.91911 4.47696 2.71545 4.54378 2.51179 4.6106C 2.30813 4.67742 2.03658 4.67742 1.76504 4.67742L -1.91712e-06 4.67742L -1.91712e-06 4.74424ZM 0.610973 4.14286L 1.62927 4.14286C 1.9687 4.14286 2.17236 4.14286 2.37601 4.07604C 2.57967 4.00922 2.71545 3.9424 2.78333 3.80876C 2.91911 3.67512 3.05488 3.47465 3.12276 3.20737C 3.19065 2.94009 3.25853 2.67281 3.25853 2.27189C 3.25853 1.80415 3.19065 1.40323 2.98699 1.13595C 2.85122 0.868664 2.64756 0.668202 2.37601 0.601382C 2.17236 0.534562 1.90082 0.534562 1.56138 0.534562L 0.543088 0.534562L 0.543088 4.14286L 0.610973 4.14286Z"/>
<path id="path9_fill" d="M -2.74971e-07 4.74424L -2.74971e-07 1.7738e-07L 0.610975 1.7738e-07L 0.610975 4.74424L -2.74971e-07 4.74424Z"/>
<path id="path10_fill" d="M 2.37602 2.94009L 2.37602 2.40553L 4.4126 2.40553L 4.4126 4.14286C 4.07317 4.41014 3.80162 4.54378 3.46219 4.67742C 3.12276 4.81106 2.78333 4.87788 2.4439 4.87788C 1.9687 4.87788 1.56138 4.74424 1.15406 4.54378C 0.746746 4.34332 0.475201 4.07604 0.271542 3.67511C 0.0678839 3.27419 -2.64718e-06 2.87327 -2.64718e-06 2.40553C -2.64718e-06 1.93779 0.0678839 1.53687 0.271542 1.13595C 0.475201 0.735023 0.746746 0.467742 1.15406 0.267282C 1.49349 0.0668209 1.9687 8.24058e-08 2.4439 8.24058e-08C 2.78333 8.24058e-08 3.12276 0.0668206 3.39431 0.133641C 3.66585 0.267281 3.86951 0.400921 4.07317 0.601382C 4.20894 0.801843 4.34471 1.06912 4.4126 1.40323L 3.80162 1.53687C 3.73374 1.26958 3.66585 1.13594 3.53008 0.935484C 3.39431 0.801843 3.25854 0.668202 3.05488 0.601382C 2.85122 0.534562 2.64756 0.467741 2.37602 0.467741C 2.10447 0.467741 1.83293 0.534562 1.62927 0.601382C 1.42561 0.668202 1.22195 0.801843 1.08618 0.935484C 0.950406 1.06912 0.882519 1.26958 0.814633 1.40323C 0.678861 1.67051 0.610978 2.00461 0.610978 2.33871C 0.610978 2.73963 0.678861 3.14055 0.814633 3.40784C 0.950405 3.67512 1.15407 3.87557 1.4935 4.07604C 1.76504 4.20968 2.10447 4.2765 2.37602 4.2765C 2.64756 4.2765 2.9191 4.20968 3.19065 4.14286C 3.46219 4.00922 3.66585 3.94239 3.80162 3.80875L 3.80162 2.94009L 2.37602 2.94009Z"/>
<path id="path11_fill" d="M 1.26886e-06 4.74424L 1.26886e-06 1.7738e-07L 0.610976 1.7738e-07L 0.610976 4.74424L 1.26886e-06 4.74424Z"/>
<path id="path12_fill" d="M 1.56138 4.74424L 1.56138 0.534562L -2.99128e-06 0.534562L -2.99128e-06 1.7738e-07L 3.80162 1.7738e-07L 3.80162 0.534562L 2.17236 0.534562L 2.17236 4.74424L 1.56138 4.74424Z"/>
<path id="path13_fill" d="M 4.40492e-07 4.74424L 1.83293 1.7738e-07L 2.51179 1.7738e-07L 4.48049 4.74424L 3.73374 4.74424L 3.19065 3.27419L 1.15407 3.27419L 0.610976 4.74424L 4.40492e-07 4.74424ZM 1.35773 2.73963L 2.98699 2.73963L 2.51179 1.40323C 2.37601 1.0023 2.24024 0.668202 2.17236 0.400921C 2.10447 0.735022 2.03658 1.0023 1.90081 1.3364L 1.35773 2.73963Z"/>
<path id="path14_fill" d="M 2.08264e-06 4.74424L 2.08264e-06 1.7738e-07L 0.610977 1.7738e-07L 0.610977 4.20968L 2.98699 4.20968L 2.98699 4.74424L 2.08264e-06 4.74424Z"/>
<path id="path15_fill" d="M 3.73374 3.20737L 4.34471 3.34101C 4.20894 3.87558 3.9374 4.2765 3.59797 4.54378C 3.25854 4.81106 2.85122 4.9447 2.30813 4.9447C 1.76504 4.9447 1.35772 4.81106 1.01829 4.6106C 0.678861 4.41014 0.475206 4.07604 0.271547 3.67512C 0.0678885 3.27419 1.83686e-06 2.87327 1.83686e-06 2.40553C 1.83686e-06 1.93779 0.0678885 1.47005 0.271547 1.13595C 0.475206 0.735023 0.746746 0.467742 1.08618 0.267282C 1.42561 0.0668208 1.83292 -1.25688e-08 2.24024 -1.25688e-08C 2.71545 -1.25688e-08 3.12276 0.133641 3.46219 0.334102C 3.80162 0.601383 4.00529 0.935485 4.14106 1.33641L 3.53008 1.47005C 3.39431 1.13594 3.25854 0.868663 3.05488 0.735023C 2.85122 0.601382 2.57967 0.467741 2.24024 0.467741C 1.90081 0.467741 1.56138 0.534562 1.28984 0.735023C 1.01829 0.935484 0.882519 1.13594 0.746747 1.47005C 0.67886 1.73733 0.610977 2.07143 0.610977 2.40553C 0.610977 2.80645 0.678859 3.14055 0.814631 3.47466C 0.950404 3.80876 1.15406 4.00922 1.35772 4.14286C 1.62927 4.2765 1.90081 4.34332 2.17236 4.34332C 2.51179 4.34332 2.85122 4.20968 3.05488 4.00922C 3.46219 3.87558 3.59797 3.6083 3.73374 3.20737Z"/>
<path id="path16_fill" d="M 3.19065 8.24058e-08L 3.80163 8.24058e-08L 3.80163 2.73963C 3.80163 3.20737 3.73374 3.60829 3.66586 3.87558C 3.53009 4.14286 3.32642 4.41014 3.05488 4.54378C 2.78333 4.74424 2.37601 4.81106 1.90081 4.81106C 1.42561 4.81106 1.08618 4.74424 0.814636 4.6106C 0.543091 4.47696 0.339434 4.20968 0.203661 3.94239C 0.0678888 3.67511 7.69997e-07 3.27419 7.69997e-07 2.73963L 7.69997e-07 8.24058e-08L 0.610976 8.24058e-08L 0.610976 2.73963C 0.610976 3.14055 0.67886 3.47465 0.746745 3.67511C 0.814632 3.87557 0.950408 4.00922 1.15407 4.14286C 1.35773 4.2765 1.56138 4.2765 1.83293 4.2765C 2.30813 4.2765 2.64756 4.14286 2.85122 3.94239C 3.05488 3.74193 3.12277 3.34101 3.12277 2.73963L 3.12277 8.24058e-08L 3.19065 8.24058e-08Z"/>
<path id="path17_fill" d="M 3.71749e-06 4.74424L 3.71749e-06 1.7738e-07L 2.17235 1.7738e-07C 2.57967 1.7738e-07 2.91911 0.0668207 3.12276 0.133641C 3.32642 0.200461 3.53008 0.400921 3.66585 0.601382C 3.80163 0.801843 3.86951 1.06912 3.86951 1.3364C 3.86951 1.67051 3.73374 1.93779 3.53008 2.20507C 3.32643 2.40553 2.98699 2.60599 2.51178 2.67281C 2.71544 2.73963 2.78333 2.80645 2.9191 2.94009C 3.12276 3.14055 3.25853 3.34101 3.46219 3.54147L 4.27682 4.81106L 3.46219 4.81106L 2.85122 3.80876C 2.64757 3.54147 2.51179 3.27419 2.37601 3.14055C 2.24024 3.00691 2.17235 2.87327 2.03658 2.80645C 1.9687 2.73963 1.83293 2.67281 1.76504 2.67281C 1.69716 2.67281 1.56139 2.67281 1.42561 2.67281L 0.678864 2.67281L 0.678864 4.81106L 3.71749e-06 4.81106L 3.71749e-06 4.74424ZM 0.610973 2.07143L 1.9687 2.07143C 2.24025 2.07143 2.51179 2.07143 2.64756 2.00461C 2.78334 1.93779 2.9191 1.87097 3.05487 1.73733C 3.12276 1.60369 3.19065 1.47005 3.19065 1.3364C 3.19065 1.13594 3.12276 0.935484 2.9191 0.801843C 2.78333 0.668203 2.51179 0.601382 2.10447 0.601382L 0.543094 0.601382L 0.543094 2.07143L 0.610973 2.07143Z"/>
<path id="path18_fill" d="M -3.44098e-06 4.74424L -3.44098e-06 1.7738e-07L 2.17236 1.7738e-07C 2.57967 1.7738e-07 2.91911 0.0668207 3.12277 0.133641C 3.32643 0.200461 3.53009 0.400921 3.66586 0.601382C 3.80163 0.801843 3.86951 1.06912 3.86951 1.3364C 3.86951 1.67051 3.73374 1.93779 3.53008 2.20507C 3.32642 2.40553 2.98699 2.60599 2.51179 2.67281C 2.64756 2.73963 2.78334 2.80645 2.91911 2.94009C 3.12277 3.14055 3.25854 3.34101 3.4622 3.54147L 4.27683 4.81106L 3.4622 4.81106L 2.85122 3.80876C 2.64756 3.54147 2.51179 3.27419 2.37602 3.14055C 2.24025 3.00691 2.17236 2.87327 2.03659 2.80645C 1.9687 2.73963 1.83292 2.67281 1.76504 2.67281C 1.69715 2.67281 1.56138 2.67281 1.42561 2.67281L 0.678856 2.67281L 0.678856 4.81106L -3.44098e-06 4.81106L -3.44098e-06 4.74424ZM 0.610978 2.07143L 1.9687 2.07143C 2.24024 2.07143 2.51178 2.07143 2.64756 2.00461C 2.78333 1.93779 2.91911 1.87097 3.05488 1.73733C 3.12276 1.60369 3.19065 1.47005 3.19065 1.3364C 3.19065 1.13594 3.12277 0.935484 2.91911 0.801843C 2.78334 0.668203 2.51178 0.601382 2.10447 0.601382L 0.543087 0.601382L 0.543087 2.07143L 0.610978 2.07143Z"/>
<path id="path19_fill" d="M 4.18602e-07 4.74424L 4.18602e-07 1.7738e-07L 3.53008 1.7738e-07L 3.53008 0.534562L 0.67886 0.534562L 0.67886 2.00461L 3.32642 2.00461L 3.32642 2.53917L 0.67886 2.53917L 0.67886 4.14286L 3.66585 4.14286L 3.66585 4.67742L 4.18602e-07 4.67742L 4.18602e-07 4.74424Z"/>
<path id="path20_fill" d="M 5.78746e-06 4.74424L 5.78746e-06 1.7738e-07L 0.678866 1.7738e-07L 3.19064 3.74193L 3.19064 1.7738e-07L 3.80163 1.7738e-07L 3.80163 4.74424L 3.12277 4.74424L 0.610975 1.0023L 0.610975 4.74424L 5.78746e-06 4.74424Z"/>
<path id="path21_fill" d="M 3.73374 3.20737L 4.34471 3.34101C 4.20894 3.87558 4.00528 4.2765 3.59796 4.54378C 3.25853 4.81106 2.85122 4.9447 2.30813 4.9447C 1.76504 4.9447 1.35772 4.81106 1.01829 4.6106C 0.678862 4.41014 0.475201 4.07604 0.271542 3.67512C 0.0678843 3.27419 3.26049e-06 2.87327 3.26049e-06 2.40553C 3.26049e-06 1.93779 0.0678843 1.47005 0.271542 1.13595C 0.475201 0.735023 0.746753 0.467742 1.08618 0.267282C 1.42562 0.0668208 1.83293 -1.25688e-08 2.24024 -1.25688e-08C 2.71545 -1.25688e-08 3.12276 0.133641 3.46219 0.334102C 3.80163 0.601383 4.00528 0.935485 4.14105 1.33641L 3.53008 1.47005C 3.39431 1.13594 3.25853 0.868663 3.05487 0.735023C 2.85121 0.601382 2.57967 0.467741 2.24024 0.467741C 1.90081 0.467741 1.56138 0.534562 1.28983 0.735023C 1.01829 0.935484 0.882514 1.13594 0.746742 1.47005C 0.61097 1.73733 0.610972 2.07143 0.610972 2.40553C 0.610972 2.80645 0.67886 3.14055 0.814633 3.47466C 0.950405 3.80876 1.08618 4.00922 1.35772 4.14286C 1.62927 4.2765 1.90081 4.34332 2.17235 4.34332C 2.51178 4.34332 2.85121 4.20968 3.05487 4.00922C 3.53008 3.87558 3.66586 3.6083 3.73374 3.20737Z"/>
<path id="path22_fill" d="M 1.83293 4.81106L 1.83293 2.80645L -1.09067e-06 0.0668205L 0.74675 0.0668205L 1.69715 1.47005C 1.90081 1.73733 2.03659 2.00461 2.17236 2.27189C 2.30813 2.00461 2.51179 1.73733 2.71545 1.40323L 3.66585 8.24058e-08L 4.4126 8.24058e-08L 2.51179 2.73963L 2.51179 4.74424L 1.83293 4.74424L 1.83293 4.81106Z"/>
<path id="path23_fill" d="M 1.47087e-06 4.74424L 1.47087e-06 1.7738e-07L 3.25853 1.7738e-07L 3.25853 0.534562L 0.610971 0.534562L 0.610971 2.00461L 2.85122 2.00461L 2.85122 2.53917L 0.610971 2.53917L 0.610971 4.67742L 1.47087e-06 4.67742L 1.47087e-06 4.74424Z"/>
<path id="path24_fill" d="M 3.19065 8.24058e-08L 3.80163 8.24058e-08L 3.80163 2.73963C 3.80163 3.20737 3.73373 3.60829 3.66585 3.87558C 3.53008 4.14286 3.32642 4.41014 3.05488 4.54378C 2.78333 4.74424 2.37601 4.81106 1.90081 4.81106C 1.42561 4.81106 1.08618 4.74424 0.81464 4.6106C 0.543095 4.47696 0.339431 4.20968 0.203659 3.94239C 0.0678862 3.67511 -1.82802e-06 3.27419 -1.82802e-06 2.73963L -1.82802e-06 8.24058e-08L 0.610979 8.24058e-08L 0.610979 2.73963C 0.610979 3.14055 0.678863 3.47465 0.746749 3.67511C 0.814636 3.87557 0.950412 4.00922 1.15407 4.14286C 1.35773 4.2765 1.56138 4.2765 1.83293 4.2765C 2.30813 4.2765 2.64756 4.14286 2.85122 3.94239C 3.05488 3.74193 3.12276 3.34101 3.12276 2.73963L 3.12276 8.24058e-08L 3.19065 8.24058e-08Z"/>
<path id="path25_fill" d="M -4.88113e-06 4.74424L -4.88113e-06 1.7738e-07L 0.678867 1.7738e-07L 3.19065 3.74193L 3.19065 1.7738e-07L 3.80163 1.7738e-07L 3.80163 4.74424L 3.12277 4.74424L 0.610976 1.0023L 0.610976 4.74424L -4.88113e-06 4.74424Z"/>
<path id="path26_fill" d="M -3.84038e-08 4.74424L -3.84038e-08 1.7738e-07L 1.69715 1.7738e-07C 2.10447 1.7738e-07 2.37601 2.71094e-07 2.57967 0.0668206C 2.85121 0.133641 3.12277 0.26728 3.25854 0.400921C 3.53009 0.601382 3.73373 0.868664 3.80162 1.20277C 3.93739 1.53687 4.00528 1.93779 4.00528 2.33871C 4.00528 2.67281 3.9374 3.00691 3.86951 3.27419C 3.80162 3.54147 3.66585 3.80876 3.53008 3.9424C 3.39431 4.14286 3.25853 4.2765 3.12276 4.34332C 2.98699 4.47696 2.78333 4.54378 2.57967 4.6106C 2.37601 4.67742 2.10448 4.67742 1.83293 4.67742L -3.84038e-08 4.67742L -3.84038e-08 4.74424ZM 0.67886 4.14286L 1.69715 4.14286C 2.03658 4.14286 2.24024 4.14286 2.4439 4.07604C 2.64756 4.00922 2.78334 3.9424 2.85122 3.80876C 2.98699 3.67512 3.12276 3.47465 3.19065 3.20737C 3.25854 2.94009 3.32642 2.67281 3.32642 2.27189C 3.32642 1.80415 3.25854 1.40323 3.05488 1.13595C 2.91911 0.868664 2.71545 0.668202 2.4439 0.601382C 2.24024 0.534562 1.9687 0.534562 1.62927 0.534562L 0.610981 0.534562L 0.610981 4.14286L 0.67886 4.14286Z"/>
<path id="path27_fill" d="M 29.5984 6.61521L 26.6793 3.80875L 26.4077 4.07604L 22.7419 7.68433L 19.076 4.07604L 18.8045 3.80875L 18.3972 3.34101C 18.1256 3.07373 17.8541 2.80645 17.5825 2.53917C 15.7496 0.935484 13.3057 6.23525e-08 10.6581 6.23525e-08C 4.75203 6.23525e-08 0 4.67742 0 10.4908C 0 16.2373 4.75203 20.9816 10.6581 20.9816C 13.3057 20.9816 15.7496 20.0461 17.5825 18.4424C 17.8541 18.1751 18.1256 17.9078 18.3972 17.6406L 18.8724 17.1728L 19.1439 16.9055L 22.8098 13.2972L 26.4756 16.9055L 26.7472 17.1728L 29.6663 14.3664L 25.7289 10.4908L 29.5984 6.61521ZM 15.9533 14.3664L 15.5459 14.7673L 15.478 14.8341C 15.2065 15.1014 14.935 15.3687 14.5955 15.6359C 13.5093 16.5046 12.0837 16.9723 10.5902 16.9723C 6.99228 16.9723 4.00528 14.0991 4.00528 10.4908C 4.00528 6.94931 6.92439 4.00922 10.5902 4.00922C 12.0837 4.00922 13.5093 4.54378 14.5955 5.34562C 14.935 5.6129 15.2065 5.81336 15.478 6.14746L 15.5459 6.21428L 15.9533 6.61521L 19.8906 10.4908L 15.9533 14.3664Z"/>
<path id="path28_fill" d="M 6.92439 8.01843C 5.97398 8.01843 5.02358 8.15207 4.14106 8.41935L 4.14106 0L -1.46741e-06 0L -1.46741e-06 10.5576L 2.9191 13.3641C 4.00528 12.4954 5.4309 12.0276 6.92439 12.0276C 10.5224 12.0276 13.5093 14.9009 13.5093 18.5092C 13.5093 22.0507 10.5902 24.9908 6.92439 24.9908C 5.4309 24.9908 4.00528 24.4562 2.9191 23.6544L -1.46741e-06 26.4608C 1.83293 28.0645 4.27683 29 6.92439 29C 12.7626 29 17.5825 24.3226 17.5825 18.5092C 17.5825 12.6959 12.8305 8.01843 6.92439 8.01843Z"/>
</defs>
</svg>
