<svg width="85" height="80" viewBox="0 0 85 80" version="1.1" xmlns="http://www.w3.org/2000/svg" xmlns:xlink="http://www.w3.org/1999/xlink">
<title>Group</title>
<desc>Created using Figma</desc>
<g id="Canvas" transform="translate(-201 -812)">
<g id="Group">
<g id="path0">
<use xlink:href="#path0_fill" transform="translate(233.95 812.126)" fill="#CECFD0"/>
</g>
<g id="path2">
<use xlink:href="#path1_fill" transform="translate(201 812)" fill="#CECFD0"/>
</g>
</g>
</g>
<defs>
<path id="path0_fill" fill-rule="evenodd" d="M 22.0537 0.892813C 19.6521 2.2852 15.0982 4.91386 12.0022 6.69493C 10.5819 7.51226 8.41447 8.76054 7.186 9.46886C 5.95754 10.1774 3.83891 11.3938 2.47809 12.1721L 0.00379898 13.5871L 9.74905e-05 27.4161C -0.00198508 35.0222 0.0292542 41.2451 0.0695165 41.2451C 0.109779 41.2451 0.973568 40.7635 1.98915 40.1751C 3.0045 39.5866 4.08673 38.9614 4.39378 38.7857L 4.95237 38.4663L 5.02202 27.4935L 5.0919 16.5206L 8.16317 14.7458C 9.85234 13.7696 11.7685 12.6613 12.421 12.2827C 13.0738 11.9042 15.618 10.437 18.0751 9.02197C 20.532 7.60695 22.8781 6.25059 23.2886 6.00786L 24.0351 5.56675L 25.0338 6.14435C 27.2013 7.3984 30.7865 9.46724 33.7106 11.1513C 35.3997 12.1241 37.787 13.4998 39.0155 14.2086C 40.2442 14.9172 41.6404 15.7222 42.1185 15.998L 42.9878 16.4989L 43.026 27.3743C 43.0507 34.4776 43.0156 38.3067 42.9244 38.4143C 42.8476 38.5051 41.7797 39.1564 40.5512 39.8617C 35.8327 42.5702 33.7714 43.7557 31.5468 45.0398C 30.2799 45.771 28.0905 47.0347 26.6818 47.8479C 25.2728 48.6613 24.0987 49.3266 24.0728 49.3266C 23.9939 49.3266 20.0676 47.0971 19.4924 46.7255L 18.9553 46.3788L 16.4561 47.8132C 13.7043 49.3925 13.8036 49.3079 14.3416 49.6149C 14.5522 49.7352 16.4521 50.8271 18.5636 52.0414C 20.675 53.2558 22.771 54.459 23.2213 54.7154L 24.0397 55.1814L 25.7342 54.2186C 27.8068 53.0408 31.202 51.0883 37.6195 47.3839C 40.3069 45.8326 43.0082 44.2776 43.6225 43.9282C 44.2366 43.5788 45.022 43.1245 45.3674 42.9187C 45.7131 42.713 46.452 42.2758 47.0094 41.9476C 47.6346 41.5795 48.0514 41.237 48.0965 41.0541C 48.1368 40.891 48.1516 34.6489 48.1298 27.1828L 48.0898 13.6081L 46.9731 12.9624C 43.6475 11.04 33.6078 5.25127 32.1052 4.38984C 31.1453 3.83995 28.9781 2.59675 27.289 1.62769C 23.6825 -0.441608 24.2242 -0.365626 22.0537 0.892813ZM 26.2419 71.8294L 26.2419 79.5624L 26.8141 79.5624L 27.3864 79.5624L 27.3375 73.0963C 27.2982 67.8811 27.3209 66.7695 27.4546 67.3489C 27.5766 67.8781 30.2364 77.031 30.9329 79.3186C 30.9873 79.4968 31.1546 79.5624 31.5563 79.5624L 32.1052 79.5624L 32.1052 71.8294L 32.1052 64.0963L 31.5468 64.0963L 30.9885 64.0963L 30.9945 68.7291C 30.9977 71.2772 31.0551 74.2084 31.122 75.243C 31.2652 77.4587 31.2393 77.5726 30.9207 76.1213C 30.7895 75.5234 30.0266 72.8439 29.2255 70.167C 28.4244 67.4903 27.7006 65.0293 27.6171 64.6981C 27.4669 64.103 27.4581 64.0963 26.8535 64.0963L 26.2419 64.0963L 26.2419 71.8294ZM 34.815 69.2365C 33.7319 69.8956 33.2346 71.2513 33.1226 73.8497C 32.9551 77.7407 33.8135 79.746 35.6547 79.764C 37.0417 79.7774 37.8027 78.8682 38.185 76.7409L 38.2787 76.2183L 37.7005 76.2183C 37.0699 76.2183 37.0565 76.2356 36.9244 77.2218C 36.824 77.9717 36.2288 78.7264 35.738 78.7264C 34.945 78.7264 34.3976 77.6405 34.2455 75.7654L 34.1579 74.6857L 36.28 74.6857L 38.4018 74.6857L 38.313 73.4665C 38.0522 69.885 36.6115 68.143 34.815 69.2365ZM 48.9205 69.1688C 46.8868 70.0531 47.0085 72.2548 49.2174 74.5416C 50.5978 75.9709 51.0134 76.7495 50.8029 77.5109C 50.4565 78.7627 49.103 78.9576 47.9852 77.9169L 47.6011 77.5596L 47.6011 78.3426C 47.6011 80.3047 50.723 80.4137 51.6692 78.4846C 52.436 76.9206 52.0882 75.8102 50.2274 73.8825C 48.4644 72.0564 48.2096 71.236 49.1579 70.4397C 49.6822 69.9993 50.158 69.9965 50.9167 70.4296L 51.51 70.7681L 51.51 70.1423C 51.51 69.1845 50.102 68.6552 48.9205 69.1688ZM 38.527 69.2388C 38.527 69.4127 39.8392 76.8107 40.1553 78.4197L 40.3828 79.576L 41.0175 79.5343L 41.652 79.4927L 41.8891 77.9601C 42.3952 74.6885 42.7152 72.4889 42.8112 71.6203L 42.9114 70.7146L 43.0241 71.6203C 43.0864 72.1185 43.3564 74.0622 43.6246 75.9398C 43.8928 77.8172 44.1119 79.4005 44.1117 79.4578C 44.1114 79.5153 44.3896 79.5624 44.73 79.5624C 45.4593 79.5624 45.3758 79.7444 45.8474 77.1241C 46.0406 76.0511 46.4513 73.8319 46.7602 72.1926C 47.0691 70.5531 47.322 69.1894 47.322 69.1621C 47.322 69.0192 46.2254 69.1374 46.1685 69.2864C 46.132 69.3822 45.8379 71.1848 45.5151 73.2924C 44.835 77.7312 44.7786 78.0181 44.7047 77.4026C 44.6772 77.1728 44.4067 75.27 44.1038 73.1744C 43.8007 71.0785 43.5526 69.3074 43.5526 69.2381C 43.5526 69.1688 43.2701 69.1122 42.9244 69.1122C 42.5789 69.1122 42.2962 69.1774 42.2962 69.257C 42.2962 69.3365 42.0486 71.0139 41.7457 72.9841C 41.4428 74.9545 41.1503 76.8802 41.0957 77.2633C 41.0073 77.883 40.9446 77.6058 40.5286 74.7552C 40.2712 72.9926 39.9815 71.0176 39.8851 70.3663L 39.7092 69.182L 39.1182 69.139C 38.7802 69.1145 38.527 69.1573 38.527 69.2388ZM 36.5488 70.5769C 36.8323 70.9365 37.0542 71.7453 37.1886 72.909L 37.2652 73.5709L 35.7221 73.5709L 34.1791 73.5709L 34.2786 72.7698C 34.5473 70.6032 35.6955 69.4942 36.5488 70.5769Z"/>
<path id="path1_fill" fill-rule="evenodd" d="M 24.989 1.50626C 19.4756 4.70628 8.87993 10.8151 6.3913 12.2285L 3.77818 13.7128L 3.77379 27.5799L 3.76916 41.4472L 6.52644 43.0361C 8.04275 43.9103 10.8227 45.5135 12.7039 46.5992C 14.5849 47.6847 17.3806 49.296 18.9161 50.1798C 20.4519 51.0637 23.0791 52.5775 24.7546 53.544L 27.8009 55.3016L 29.152 54.5168C 29.8953 54.0852 31.5398 53.138 32.8069 52.4117C 34.0738 51.6856 36.7436 50.1484 38.74 48.9957C 40.7363 47.8431 43.7203 46.1209 45.371 45.1687C 47.0218 44.2163 49.1421 42.9913 50.0827 42.4467L 51.7929 41.4562L 51.7929 27.6305L 51.7929 13.8045L 49.3149 15.2366L 46.8369 16.6687L 46.8013 27.6238L 46.7654 38.5788L 46.4521 38.7689C 44.8555 39.7377 27.8939 49.4523 27.7991 49.4523C 27.7061 49.4523 14.472 41.8756 10.2259 39.3915L 8.79501 38.5543L 8.79501 27.5942L 8.79501 16.6343L 18.2935 11.1606L 27.7919 5.68666L 28.5893 6.13539C 29.0278 6.38205 30.184 7.0481 31.1587 7.61508L 32.9309 8.64627L 35.3048 7.27813C 36.6105 6.5257 37.6876 5.84717 37.6985 5.77073C 37.7224 5.60167 28.0777 -0.0106086 27.781 1.5065e-05C 27.6658 0.00394119 26.4096 0.681775 24.989 1.50626ZM 7.95737 71.4673L 7.95737 79.6881L 8.86489 79.6881L 9.77218 79.6881L 9.77218 71.4673L 9.77218 63.2464L 8.86489 63.2464L 7.95737 63.2464L 7.95737 71.4673ZM 22.8949 71.4673L 22.8949 79.6881L 23.7326 79.6881L 24.5702 79.6881L 24.5702 77.0174C 24.5702 75.5486 24.6056 74.3823 24.6489 74.4255C 24.6922 74.4687 25.2605 75.6232 25.9118 76.9909C 27.3182 79.9452 27.122 79.7124 28.1628 79.6604L 29.0049 79.6184L 27.6973 76.9013C 26.9779 75.407 26.4225 74.0904 26.463 73.9754C 26.5035 73.8604 27.0679 72.7816 27.7172 71.5781C 28.3667 70.3749 28.898 69.3559 28.898 69.3141C 28.898 69.2721 28.4981 69.2379 28.0096 69.2379L 27.1213 69.2379L 25.8806 71.5627L 24.6399 73.8872L 24.6033 68.5668L 24.5667 63.2464L 23.731 63.2464L 22.8949 63.2464L 22.8949 71.4673ZM 33.9236 71.4673L 33.9236 79.6881L 34.7534 79.6881L 35.5829 79.6881L 35.6257 75.7269C 35.6752 71.1698 35.712 71.0204 36.8067 70.9382C 37.886 70.8569 37.8961 70.8984 37.945 75.592L 37.9875 79.6881L 38.8175 79.6881L 39.6473 79.6881L 39.6473 75.2248C 39.6473 69.7368 39.5592 69.4215 37.9811 69.2703C 37.0682 69.1827 36.6813 69.2936 36.0901 69.8116L 35.5989 70.2421L 35.5989 66.7444L 35.5989 63.2464L 34.7612 63.2464L 33.9236 63.2464L 33.9236 71.4673ZM -2.23377e-09 71.94L -2.23377e-09 79.6881L 1.86248 79.6881C 5.54996 79.6881 6.56947 78.8281 6.67985 75.6241C 6.75575 73.4209 6.29736 72.3377 5.09805 71.8853L 4.68154 71.7282L 5.17186 71.4486C 6.18074 70.8733 6.66874 69.4705 6.5107 67.6005C 6.29018 64.9908 5.43148 64.334 2.12881 64.2476L -2.23377e-09 64.1922L -2.23377e-09 71.94ZM 48.614 65.0118C 48.5164 65.0511 48.3435 65.2624 48.2301 65.4815C 47.5651 66.7649 48.9051 67.9793 49.905 66.9991C 50.759 66.1619 49.7226 64.5665 48.614 65.0118ZM 3.69465 66.2312C 4.39276 66.5224 4.67113 67.1409 4.67113 68.4019C 4.67113 70.0846 4.20209 70.6846 2.75427 70.8546L 1.95434 70.9483L 1.95434 68.4908L 1.95434 66.0333L 2.5872 66.0333C 2.93499 66.0333 3.43341 66.1224 3.69465 66.2312ZM 12.887 69.3696C 10.2253 70.5758 10.1609 78.3567 12.8023 79.6264C 15.1583 80.7588 16.9697 78.8883 17.1351 75.1523C 17.3369 70.5941 15.5508 68.1626 12.887 69.3696ZM 19.7272 69.3028C 17.5113 70.2647 17.2034 77.7717 19.3102 79.4639C 20.5447 80.4553 22.0573 79.998 22.0573 78.6334C 22.0573 77.7809 22.0413 77.7361 21.7873 77.8717C 20.488 78.5659 19.682 77.3156 19.6862 74.6119C 19.6908 71.7003 20.4836 70.3578 21.7873 71.0541C 22.0411 71.1897 22.0573 71.1451 22.0573 70.31L 22.0573 69.4213L 21.5177 69.2599C 20.817 69.0504 20.279 69.0633 19.7272 69.3028ZM 30.7431 69.3303C 28.5407 70.4139 28.3831 78.2408 30.5369 79.5694C 31.857 80.3837 33.2257 79.914 33.2257 78.6465C 33.2257 77.8128 33.0947 77.5244 32.8765 77.8768C 32.7282 78.1163 31.7533 78.0382 31.5076 77.7671C 30.5177 76.6756 30.5166 72.2518 31.5058 71.1608C 31.7943 70.8426 32.6276 70.831 32.9702 71.1405C 33.2153 71.3617 33.2257 71.3331 33.2257 70.4368L 33.2257 69.5024L 32.7414 69.3005C 32.1097 69.037 31.3153 69.049 30.7431 69.3303ZM 42.3551 69.3633C 40.7316 70.3513 40.2399 76.3084 41.5783 78.7708C 42.2826 80.0664 43.724 80.284 44.6995 79.2419L 45.092 78.8225L 45.092 79.2553L 45.092 79.6881L 45.9296 79.6881L 46.767 79.6881L 46.767 74.4629L 46.767 69.2379L 45.9296 69.2379L 45.092 69.2379L 45.092 69.7444L 45.092 70.2509L 44.8004 69.8809C 44.1842 69.0994 43.149 68.8802 42.3551 69.3633ZM 48.3028 74.4629L 48.3028 79.6881L 49.1404 79.6881L 49.9781 79.6881L 49.9781 74.4629L 49.9781 69.2379L 49.1404 69.2379L 48.3028 69.2379L 48.3028 74.4629ZM 51.5136 74.4629L 51.5136 79.6881L 52.3512 79.6881L 53.1889 79.6881L 53.1889 75.8772C 53.1889 71.2375 53.2694 70.91 54.4095 70.91C 55.4427 70.91 55.5424 71.3689 55.554 76.1698L 55.5621 79.6881L 56.4085 79.6881L 57.2547 79.6881L 57.2112 75.1248C 57.1688 70.688 57.1589 70.5479 56.8569 70.0631C 56.2266 69.0515 54.6895 68.8927 53.7477 69.7419L 53.1889 70.2458L 53.1889 69.7419L 53.1889 69.2379L 52.3512 69.2379L 51.5136 69.2379L 51.5136 74.4629ZM 14.6157 70.9793C 16.1075 72.0222 15.6193 78.1553 14.0444 78.1553C 13.0413 78.1553 12.6558 77.1304 12.6558 74.4629C 12.6558 71.4483 13.3983 70.1285 14.6157 70.9793ZM 44.5262 71.1814C 45.7084 72.3613 45.2227 78.1553 43.9415 78.1553C 43.0009 78.1553 42.6948 77.4498 42.6126 75.0927C 42.493 71.6553 43.3158 69.9733 44.5262 71.1814ZM 3.76453 72.8259C 4.41498 73.1534 4.73916 73.765 4.82755 74.8308C 4.99022 76.7902 4.42886 77.6126 2.86025 77.7123L 1.95434 77.7699L 1.95434 75.1758L 1.95434 72.5821L 2.61752 72.5823C 2.98219 72.5823 3.49843 72.692 3.76453 72.8259Z"/>
</defs>
</svg>
