<svg width="76" height="35" viewBox="0 0 76 35" version="1.1" xmlns="http://www.w3.org/2000/svg" xmlns:xlink="http://www.w3.org/1999/xlink">
<title>CNN</title>
<desc>Created using Figma</desc>
<g id="Canvas" transform="translate(-607 -835)">
<g id="CNN">
<g id="Vector">
<use xlink:href="#path0_fill" transform="translate(607 835.008)" fill="#CECFD0"/>
</g>
<g id="Vector">
<use xlink:href="#path1_fill" transform="translate(612.667 835)" fill="#CECFD0"/>
</g>
</g>
</g>
<defs>
<path id="path0_fill" fill-rule="evenodd" d="M 24.0709 0.00621464C 24.0709 -0.0077683 17.5341 0.00621464 17.5341 0.00621464C 7.8553 0.00621464 0 7.83666 0 17.4849C 0 27.1331 7.8553 34.9635 17.5341 34.9635L 29.8361 34.9496C 32.9221 34.9496 35.433 32.4746 35.433 29.3983L 35.433 18.7433L 43.9336 32.111C 45.0838 33.8449 47.0616 34.9915 49.292 34.9915C 52.8409 34.9915 55.7165 32.125 55.7165 28.5873L 55.7165 18.7433L 64.2171 32.111C 65.3673 33.8449 67.3451 34.9915 69.5755 34.9915C 73.1244 34.9915 76 32.125 76 28.5873L 76 0.00621464L 71.6235 0.00621464L 71.6235 28.5873C 71.6235 29.7199 70.7117 30.6288 69.5755 30.6288C 68.8741 30.6288 68.2429 30.2653 67.8782 29.7339L 52.7567 5.96294C 52.6165 5.76718 52.378 5.62735 52.1115 5.62735C 51.6766 5.62735 51.34 5.97693 51.34 6.39641L 51.34 28.5733C 51.34 29.706 50.4282 30.6149 49.292 30.6149C 48.5906 30.6149 47.9594 30.2513 47.5947 29.7199L 32.4732 5.96294C 32.333 5.76718 32.0945 5.62735 31.828 5.62735C 31.3931 5.62735 31.0565 5.97693 31.0565 6.39641L 31.0565 29.3983C 31.0565 30.0695 30.5094 30.6149 29.8361 30.6149L 17.5341 30.6009C 10.268 30.6009 4.37652 24.728 4.37652 17.4849C 4.37652 10.2417 10.268 4.36889 17.5341 4.36889L 24.0709 4.36889L 24.0709 0.00621464Z"/>
<path id="path1_fill" fill-rule="evenodd" d="M 19.1192 25.0155C 19.4699 25.0155 19.7364 24.7358 19.7364 24.4002L 19.7364 6.41817C 19.7364 2.88048 22.612 0.0139829 26.1609 0.0139829C 28.4053 0.0139829 30.3972 1.16058 31.5334 2.90845L 40.0059 16.1503L 40.0199 6.40418C 40.0199 2.8665 42.8955 1.98709e-15 46.4444 1.98709e-15C 48.6888 1.98709e-15 50.6807 1.1466 51.8169 2.89447L 60.2894 16.1363L 60.2894 0L 64.694 0L 64.68 28.5811C 64.68 29.0146 64.3293 29.3502 63.9085 29.3502C 63.656 29.3502 63.4315 29.2243 63.2913 29.0425L 48.1418 5.25758C 47.777 4.71225 47.1458 4.36268 46.4444 4.36268C 45.3082 4.36268 44.3965 5.27157 44.3965 6.40418L 44.3965 28.5811C 44.3965 29.0146 44.0458 29.3502 43.625 29.3502C 43.3725 29.3502 43.148 29.2243 43.0078 29.0425L 27.8583 5.25758C 27.4935 4.71225 26.8623 4.36268 26.1609 4.36268C 25.0247 4.36268 24.113 5.27157 24.113 6.40418L 24.127 28.7629C 24.127 29.1125 23.8464 29.3781 23.5098 29.3781L 11.8811 29.3781C 5.31635 29.3781 2.1404e-07 24.0367 2.1404e-07 17.4926C 2.1404e-07 10.9486 5.31635 5.60716 11.8811 5.60716C 11.8811 5.60716 18.4179 5.57919 18.4179 5.60716C 18.4179 5.63512 18.4179 10.0118 18.4179 10.0118L 11.8811 10.0118C 7.72905 10.0118 4.37652 13.3677 4.37652 17.4926C 4.37652 21.6316 7.74308 25.0155 11.8811 25.0155L 19.1192 25.0155Z"/>
</defs>
</svg>
