<svg width="110" height="28" viewBox="0 0 110 28" version="1.1" xmlns="http://www.w3.org/2000/svg" xmlns:xlink="http://www.w3.org/1999/xlink">
<title>Forbes</title>
<desc>Created using Figma</desc>
<g id="Canvas" transform="translate(11 -838)">
<g id="Forbes">
<use xlink:href="#path0_fill" transform="translate(-11 838)" fill="#CECFD0"/>
</g>
</g>
<defs>
<path id="path0_fill" d="M 31.4132 27.775C 32.8204 27.4526 33.9422 26.9604 34.9449 26.2253C 37.3839 24.4373 38.7204 21.6958 38.8438 18.2274C 38.9655 14.8082 37.9149 11.8935 35.8834 10.0143C 34.2344 8.48876 32.1563 7.75753 29.4701 7.75753C 26.6226 7.75753 24.3294 8.62411 22.5652 10.3669C 20.6753 12.2337 19.6757 14.8378 19.6757 17.8943C 19.6757 21.0651 20.5788 23.6247 22.3304 25.418C 23.296 26.4068 24.2361 26.9997 25.5841 27.4704C 26.0607 27.6369 26.4114 27.7168 27.6857 27.9493C 27.7948 27.9692 28.5264 27.9729 29.3115 27.9575C 30.3744 27.9366 30.9112 27.89 31.4132 27.775ZM 28.404 26.6688C 27.1013 26.0887 26.1776 24.3256 25.7146 21.5358C 25.4211 19.7672 25.3934 15.8342 25.6608 13.9071C 26.0364 11.2009 26.8298 9.60206 28.065 9.06197C 28.9117 8.69177 30.0852 8.91078 30.8397 9.57984C 32.5153 11.0658 33.3611 15.2911 32.9962 20.3535C 32.7343 23.9863 31.9311 25.9566 30.4329 26.6413C 29.8897 26.8895 28.929 26.9025 28.404 26.6688ZM 65.7928 27.8791C 68.2019 27.5244 69.969 26.7124 71.4656 25.2722C 73.6288 23.1905 74.6707 20.2526 74.5299 16.6316C 74.4574 14.7674 74.1472 13.5496 73.36 12.0389C 72.2936 9.99223 70.4697 8.55661 68.3987 8.13386C 66.8452 7.81675 64.8465 8.06513 63.3268 8.76413C 62.948 8.93834 62.5855 9.08086 62.5211 9.08086C 62.419 9.08086 62.4079 8.50443 62.4339 4.54043L 62.4638 0L 62.1456 0.0626022C 61.9706 0.0970337 60.1857 0.423456 58.1793 0.787985C 56.1728 1.15251 54.4529 1.46878 54.3572 1.49079C 54.2119 1.52425 54.1864 1.57865 54.202 1.82236C 54.2193 2.09397 54.242 2.11854 54.5345 2.1817C 55.5398 2.39884 55.7188 2.47622 56.0927 2.85524C 56.5506 3.31955 56.7574 3.91246 56.8931 5.14979C 57.0013 6.13576 57.0253 23.1229 56.9221 25.6302L 56.8609 27.117L 57.6787 27.2887C 60.7754 27.9387 63.8622 28.1633 65.7928 27.8791ZM 62.9636 26.6949C 62.8033 26.6783 62.6319 26.617 62.5825 26.5587C 62.4466 26.3979 62.2994 15.8309 62.39 12.7395L 62.4619 10.2874L 63.0963 10.1079C 64.0324 9.84302 65.0401 9.88419 65.7545 10.2165C 67.1892 10.8839 68.1317 12.5324 68.6212 15.2305C 68.7806 16.1093 68.7571 19.1619 68.5825 20.2481C 68.2179 22.5162 67.5545 24.2667 66.6309 25.3976C 66.1832 25.9458 65.4397 26.4643 64.8583 26.6338C 64.4833 26.7431 63.6794 26.769 62.9636 26.6949ZM 87.6397 27.8765C 89.4773 27.584 91.2868 26.7183 92.5873 25.5095C 93.2998 24.8473 93.536 24.5278 93.437 24.3604C 93.1726 23.9137 93.184 23.9142 92.509 24.3212C 91.4342 24.9693 90.8955 25.1479 89.6328 25.2751C 88.1578 25.4237 86.7973 25.1817 85.5402 24.5473C 84.7063 24.1264 83.7069 23.1583 83.2074 22.2876C 82.5257 21.0993 82.1558 19.7113 82.0455 17.9275C 81.9992 17.1785 82.0093 16.9919 82.0989 16.9362C 82.16 16.8982 84.8044 16.867 88.0186 16.8664L 93.8278 16.8652L 93.8278 16.6399C 93.8278 16.1279 93.6566 14.7517 93.5031 14.0302C 92.886 11.1291 91.2569 9.06039 88.9338 8.22821C 88.0091 7.89699 87.1344 7.75753 85.9816 7.75753C 83.2501 7.75753 81.0193 8.63696 79.2935 10.3941C 77.9176 11.795 77.1013 13.3688 76.6031 15.5808C 76.4529 16.2474 76.4278 16.5939 76.4278 17.9939C 76.4278 19.3835 76.4534 19.7419 76.599 20.3847C 77.5238 24.4676 80.2604 27.1563 84.192 27.8451C 85.1884 28.0196 86.6566 28.033 87.6397 27.8765L 87.6397 27.8765ZM 82.0623 15.5603C 82.0026 15.4655 82.1507 14.0799 82.2971 13.3622C 82.6502 11.6324 83.2154 10.3832 83.9932 9.61399C 84.4116 9.20023 84.6025 9.07125 84.9438 8.97179C 85.1786 8.90334 85.4445 8.84753 85.5348 8.84777C 85.8987 8.84873 86.3281 9.03099 86.6477 9.32014C 87.5055 10.0962 87.9963 11.7628 88.0935 14.2297L 88.1415 15.4474L 87.3167 15.4925C 85.6611 15.5831 82.1055 15.6289 82.0623 15.5603ZM 103.741 27.8835C 107.111 27.3812 109.286 25.6078 109.857 22.898C 110.132 21.5895 110.004 20.1345 109.527 19.1615C 108.858 17.7993 107.729 16.9769 104.931 15.8158C 102.853 14.9534 101.607 14.2224 101.097 13.5659C 100.675 13.0236 100.538 12.6065 100.544 11.8832C 100.552 10.7922 100.974 9.95662 101.778 9.43562C 102.452 8.99942 103.295 8.893 104.278 9.12038C 105.465 9.39516 106.358 10.1105 107.165 11.4329C 107.421 11.8538 107.949 13.0352 108.206 13.7642C 108.246 13.8773 108.292 13.882 108.569 13.8018C 108.743 13.7512 108.91 13.6858 108.94 13.6564C 108.97 13.627 108.968 12.5119 108.936 11.1783L 108.877 8.75364L 108.589 8.63405C 108.104 8.43224 106.836 8.09383 106.001 7.94311C 105.373 7.82969 104.821 7.80032 103.345 7.80192C 101.583 7.80381 101.439 7.81513 100.711 8.0089C 98.5975 8.57178 97.0303 9.74262 96.2113 11.3708C 95.7761 12.2361 95.6257 12.9031 95.6307 13.9461C 95.6376 15.4269 96.0488 16.52 96.958 17.475C 97.7402 18.2968 98.7572 18.8831 100.49 19.511C 101.853 20.0051 103.26 20.6949 103.793 21.1306C 104.107 21.3867 104.353 21.6784 104.537 22.0112C 104.798 22.4844 104.812 22.547 104.812 23.2872C 104.812 24.0004 104.791 24.1094 104.56 24.5873C 103.957 25.8358 102.752 26.4557 101.173 26.329C 99.0273 26.1568 97.5168 24.7641 96.287 21.8241C 95.9662 21.0572 95.9442 21.0413 95.4566 21.2233L 95.2327 21.3068L 95.2887 24.0485C 95.3384 26.4818 95.3597 26.8014 95.4777 26.8903C 95.8303 27.1557 98.113 27.6875 99.6965 27.8731C 100.926 28.0172 102.812 28.0221 103.741 27.8835L 103.741 27.8835ZM 14.2035 27.0237C 14.2035 26.7882 14.1821 26.5956 14.1559 26.5956C 13.778 26.5956 12.0171 26.2229 11.7341 26.083C 10.727 25.5853 10.2615 24.4023 10.0809 21.8819C 9.95245 20.0903 9.82467 14.8268 9.9076 14.7454C 9.98281 14.6716 13.3358 14.8027 13.7277 14.8948C 14.8112 15.1494 15.6463 16.1955 16.0645 17.8219L 16.2488 18.5388L 16.733 18.562L 17.2172 18.5851L 17.2172 14.0665L 17.2172 9.54792L 16.7017 9.54792C 16.2198 9.54792 16.1862 9.55934 16.1862 9.72332C 16.1862 10.0183 15.8854 10.9516 15.6006 11.5402C 15.1546 12.462 14.5264 13.0184 13.7277 13.1992C 13.5314 13.2436 12.6049 13.3148 11.6687 13.3574C 10.3483 13.4174 9.95218 13.4135 9.90239 13.3401C 9.81035 13.2044 10.0201 2.95551 10.1247 2.47928L 10.1641 2.29976L 13.076 2.3236L 15.9879 2.34744L 16.6656 2.58563C 18.2351 3.13735 19.3644 4.26399 20.308 6.21931C 20.52 6.6586 20.7917 7.29826 20.9118 7.64077C 21.0319 7.98328 21.1382 8.2744 21.148 8.28771C 21.1578 8.30102 21.4183 8.23664 21.7269 8.14464L 22.2879 7.97736L 22.2485 5.43485C 22.2268 4.03647 22.1885 2.35814 22.1633 1.70523L 22.1175 0.518125L 11.0588 0.518125L 0 0.518125L 0.0236111 1.0043L 0.0472222 1.49048L 0.760985 1.5781C 1.71315 1.695 2.06227 1.79682 2.44569 2.06943C 3.0269 2.48269 3.38434 3.08977 3.60943 4.04594C 3.95912 5.53145 4.08497 8.88156 4.02668 15.1526C 3.96509 21.7788 3.87995 23.1569 3.44957 24.4938C 3.09561 25.5933 2.43681 26.1761 1.34864 26.3525C 1.04915 26.4011 0.624894 26.4785 0.405843 26.5246L 0.00756867 26.6085L 0.00756867 27.0301L 0.00756867 27.4518L 7.10555 27.4518L 14.2035 27.4518L 14.2035 27.0237ZM 50.7641 27.0303L 50.7641 26.6088L 50.1494 26.5579C 48.7318 26.4404 48.3434 26.3007 47.9711 25.7745C 47.4317 25.0119 47.3142 23.6047 47.3142 17.9029L 47.3142 13.4526L 47.5108 13.2472C 47.7589 12.988 48.5343 12.6264 49.0827 12.5141C 50.1962 12.2862 51.6196 12.4831 52.7329 13.019C 53.0524 13.1728 53.3272 13.2855 53.3435 13.2695C 53.3763 13.2373 55.2048 8.49452 55.2616 8.29448C 55.2873 8.20369 55.182 8.1246 54.8744 8.00379C 54.2161 7.74524 53.6453 7.65657 52.9089 7.69851C 50.9392 7.8107 49.1912 9.09508 47.9322 11.3553C 47.7231 11.7305 47.5067 12.0378 47.4511 12.0382C 47.3703 12.0387 47.3609 11.6077 47.4043 9.8936L 47.4586 7.74829L 47.2675 7.79253C 47.1623 7.81686 45.5774 8.13203 43.7454 8.4929C 39.8163 9.26687 39.2701 9.37966 39.1764 9.4365C 39.1377 9.46002 39.1059 9.59913 39.1059 9.74564C 39.1059 10.0396 39.071 10.0225 39.9638 10.1635C 41.191 10.3572 41.6245 10.9446 41.8075 12.6616C 42.0461 14.9005 41.9508 23.628 41.6747 24.8196C 41.5335 25.4288 41.1687 26.0155 40.8016 26.224C 40.6655 26.3013 40.2372 26.4252 39.8499 26.4995L 39.1456 26.6345L 39.1216 27.0432L 39.0976 27.4518L 44.9309 27.4518L 50.7641 27.4518L 50.7641 27.0303Z"/>
</defs>
</svg>
