<svg width="70" height="46" viewBox="0 0 70 46" version="1.1" xmlns="http://www.w3.org/2000/svg" xmlns:xlink="http://www.w3.org/1999/xlink">
<title>Fox News</title>
<desc>Created using Figma</desc>
<g id="Canvas" transform="translate(-810 -830)">
<g id="Fox News">
<g id="path3367 1">
<use xlink:href="#path0_fill" transform="matrix(4.3399 0 0 4.3399 811.306 830.03)" fill="#CECFD0"/>
</g>
<g id="path3371 1">
<use xlink:href="#path1_fill" transform="matrix(4.3399 0 0 4.3399 812.37 830.03)" fill="#CECFD0"/>
</g>
<g id="path3373 1">
<use xlink:href="#path2_fill" transform="matrix(4.3399 0 0 4.3399 870.916 830.03)" fill="#CECFD0"/>
</g>
<g id="path3375 1">
<use xlink:href="#path3_fill" transform="matrix(4.3399 0 0 4.3399 857.943 830.03)" fill="#CECFD0"/>
</g>
<g id="path3381 1">
<use xlink:href="#path4_fill" transform="matrix(4.3399 0 0 4.3399 819.266 836.805)" fill="#CECFD0"/>
</g>
<g id="path3388 1">
<use xlink:href="#path5_fill" transform="matrix(4.3399 0 0 4.3399 832.938 836.986)" fill="#CECFD0"/>
</g>
<g id="path3690 1">
<use xlink:href="#path6_fill" transform="matrix(4.3399 0 0 4.3399 851.016 836.775)" fill="#CECFD0"/>
</g>
<g id="Subtract">
<use xlink:href="#path7_fill" transform="matrix(4.3399 0 0 4.3399 810 866.897)" fill="#CECFD0"/>
</g>
</g>
</g>
<defs>
<path id="path0_fill" d="M 1.33526e-08 8.1812L 0.168015 8.1812L 1.79916 0L 0.483042 0L 1.33526e-08 8.1812Z"/>
<path id="path1_fill" d="M 1.33526e-08 8.1812L 0.168015 8.1812L 4.54339 0L 2.96826 0L 1.33526e-08 8.1812Z"/>
<path id="path2_fill" d="M 1.79916 8.1812L 1.63114 8.1812L 0 0L 1.30911 0L 1.79916 8.1812Z"/>
<path id="path3_fill" d="M 4.54339 8.1812L 4.37538 8.1812L 2.13642e-07 0L 1.57514 0L 4.54339 8.1812Z"/>
<path id="path4_fill" d="M 1.47013 5.17074L 0 5.17074L 0 -2.65833e-08L 3.12227 -2.65833e-08L 3.16427 1.4216L 1.46313 1.4216L 1.46313 2.0906L 2.86325 2.0906L 2.86325 3.48433L 1.44913 3.48433L 1.47013 5.17074Z"/>
<path id="path5_fill" d="M 2.45721 0C 1.0991 0 0 1.13589 0 2.52962C 0 3.92335 1.0991 5.05924 2.45721 5.05924C 3.81533 5.05924 4.91443 3.93032 4.91443 2.52962C 4.91443 1.12892 3.81533 0 2.45721 0ZM 2.47822 1.05924C 2.70223 1.05924 2.88425 1.24042 2.88425 1.46342L 2.88425 3.57492C 2.88425 3.79792 2.70223 3.9791 2.47822 3.9791C 2.2542 3.9791 2.07218 3.79792 2.07218 3.57492L 2.07218 1.46342C 2.07918 1.24042 2.2542 1.05924 2.47822 1.05924Z"/>
<path id="path6_fill" d="M 4.5504 -5.31666e-08L 2.96126 -5.31666e-08L 2.3452 1.14983L 1.68015 -5.31666e-08L 0.0840071 -5.31666e-08L 1.53313 2.50175L 0 5.14287L 1.56114 5.14287L 2.3312 3.82579L 3.08027 5.1568L 4.68341 5.1568L 3.11527 2.48781L 4.5504 -5.31666e-08Z"/>
<path id="path7_fill" fill-rule="evenodd" d="M 0 0L 16.1294 0L 16.1294 2.09756L 0 2.09756L 0 0ZM 0.483047 1.89547L 1.0291 1.89547L 1.0291 0.885016L 1.03609 0.885016L 1.84817 1.89547L 2.47122 1.89547L 2.47122 0.29268L 1.92517 0.29268L 1.92517 1.29617L 1.91816 1.29617L 1.1341 0.29268L 0.483047 0.29268L 0.483047 1.89547ZM 6.57357 1.89548L 4.87942 1.89548L 4.87942 0.285719L 6.56656 0.285719L 6.56656 0.634147L 5.43947 0.634147L 5.43947 0.926827L 6.49657 0.926827L 6.49657 1.26133L 5.43947 1.26133L 5.43947 1.54705L 6.57357 1.54705L 6.57357 1.89548ZM 9.33181 1.89547L 9.87086 1.89547L 10.2069 0.850166L 10.5639 1.89547L 11.117 1.89547L 11.726 0.29268L 11.138 0.29268L 10.8472 1.36081L 10.5149 0.29268L 9.93387 0.29268L 9.58756 1.36133L 9.2828 0.29268L 8.66675 0.29268L 9.33181 1.89547ZM 15.4153 0.369355C 15.5833 0.452978 15.6814 0.585374 15.6954 0.766557L 15.0443 0.766557C 15.0373 0.703847 15.0023 0.662036 14.9463 0.627186C 14.8903 0.59235 14.8063 0.578413 14.6803 0.578413C 14.4843 0.578413 14.3862 0.634161 14.3862 0.738683C 14.3862 0.78747 14.4283 0.822306 14.5123 0.836243C 14.5297 0.839126 14.5494 0.842023 14.5726 0.845398C 14.6054 0.85018 14.645 0.85596 14.6943 0.864131C 14.7783 0.878068 14.8203 0.88503 14.8273 0.88503C 15.0723 0.91988 15.2123 0.940779 15.2543 0.947754C 15.4223 0.975628 15.5483 1.0244 15.6324 1.09409C 15.7164 1.16377 15.7584 1.26133 15.7584 1.4007C 15.7584 1.52615 15.7164 1.63067 15.6464 1.70734C 15.5694 1.78398 15.4783 1.83973 15.3733 1.87458C 15.2683 1.90942 15.1703 1.93033 15.0723 1.93729C 14.9743 1.94427 14.8763 1.95123 14.7783 1.95123C 14.6243 1.95123 14.4913 1.94427 14.3723 1.93033C 14.2602 1.91639 14.1482 1.88852 14.0642 1.84671C 13.9802 1.8049 13.9032 1.74915 13.8542 1.67946C 13.7982 1.60978 13.7702 1.51918 13.7632 1.40768L 14.4283 1.40768C 14.4353 1.4704 14.4633 1.51918 14.5193 1.55403C 14.5753 1.58886 14.6663 1.6028 14.8063 1.6028C 14.8483 1.6028 14.8833 1.6028 14.9183 1.59584C 14.9229 1.5947 14.9276 1.59356 14.9325 1.59239C 14.9575 1.5864 14.9859 1.57962 15.0093 1.56796C 15.0373 1.56099 15.0653 1.54009 15.0793 1.51918C 15.1003 1.49826 15.1073 1.47039 15.1073 1.43555C 15.1073 1.39374 15.0933 1.36587 15.0513 1.34496C 15.0093 1.33102 14.9393 1.31012 14.8413 1.29618L 14.2812 1.21256C 14.1202 1.18469 13.9942 1.1359 13.9172 1.05925C 13.8402 0.98259 13.7982 0.88503 13.7982 0.759596C 13.7982 0.703847 13.8122 0.641123 13.8332 0.585374C 13.8612 0.529626 13.9032 0.473877 13.9662 0.425104C 14.0292 0.369355 14.1202 0.334506 14.2392 0.29967C 14.3582 0.26482 14.5053 0.250883 14.6803 0.250883C 15.0023 0.250883 15.2473 0.285733 15.4153 0.369355Z"/>
</defs>
</svg>
