<svg id="Layer_1" data-name="Layer 1" xmlns="http://www.w3.org/2000/svg" viewBox="0 0 672.27 78.54"><defs><style>.cls-1{fill:#bdc4cc;}</style></defs><title>huffingtonpost</title><path class="cls-1" d="M90.71,80.17h24.52L128.41,4.83H103.87l-4.8,27H77.77l4.81-27H58.06L44.89,80.17H69.42L74.36,52H95.65Z" transform="translate(-3.87 -3.23)"/><path class="cls-1" d="M142.34,4.83l-7.5,41.9a51.7,51.7,0,0,0-.91,9.46c0,22.26,19.46,25.58,31.06,25.58,24.46,0,35-8.13,38.83-30L212,4.83H187.49l-7,39.36c-2.23,12.32-3.82,18.75-13,18.75-6,0-8.89-3.17-8.89-9.69a51.29,51.29,0,0,1,1.1-9.4l7.12-39Z" transform="translate(-3.87 -3.23)"/><path class="cls-1" d="M341.83,80.17h24.53l3.47-19.37h11.55c21.41,0,33.19-11.6,33.19-32.66,0-14.81-10.29-23.31-28.25-23.31H355Zm38.22-37.94H373l3.29-17.76h6.6c5.38,0,8.35,2.73,8.35,7.68C391.2,38.37,386.93,42.23,380.05,42.23Z" transform="translate(-3.87 -3.23)"/><path class="cls-1" d="M462.33,3.23c-26.72,0-42.68,17.3-42.68,46.28,0,20.2,12.71,32.26,34,32.26,26.72,0,42.67-17.3,42.67-46.28C496.32,15.29,483.62,3.23,462.33,3.23Zm-7.21,59C448.8,62.27,445,57.7,445,50.05a39.94,39.94,0,0,1,.84-8.34c1.88-9.85,5-19,15-19C467.18,22.73,471,27.3,471,35a39.94,39.94,0,0,1-.84,8.34C468.22,53.15,465.09,62.27,455.12,62.27Z" transform="translate(-3.87 -3.23)"/><path class="cls-1" d="M581.64,80.17h24.53L615.92,25h18.52L638,4.83H575.18L571.63,25h19.63Z" transform="translate(-3.87 -3.23)"/><path class="cls-1" d="M541,32.68c-7.74-2.44-10.93-3.45-10.93-7.08,0-2.43,1.62-5.27,6.21-5.27a8,8,0,0,1,7.49,4.83l21.68-5.83C563,8.65,553.77,3.23,538,3.23c-29.68,0-32,19.88-32,26,0,12.36,6.57,19.91,20.68,23.77,3.76,1,8,2.13,8,6.28,0,3.31-2.47,5.28-6.61,5.28a10.1,10.1,0,0,1-9.37-6.14l-21.41,5.81c2.36,11.19,12.91,17.56,29.44,17.56,12.6,0,33.73-3.39,33.73-26.11C560.53,44.23,554.14,36.71,541,32.68Z" transform="translate(-3.87 -3.23)"/><polygon class="cls-1" points="222.24 1.6 209.06 76.94 233.59 76.94 237.46 54.77 258.1 54.77 261.53 35.8 240.91 35.8 243.19 21.77 272.06 21.77 275.61 1.6 222.24 1.6"/><polygon class="cls-1" points="286.62 1.6 273.44 76.94 297.97 76.94 301.85 54.77 322.5 54.77 325.92 35.8 305.29 35.8 307.57 21.77 336.44 21.77 340 1.6 286.62 1.6"/><polygon class="cls-1" points="27.55 76.91 0 76.91 0 1.58 40.83 1.58 27.55 76.91"/><polygon class="cls-1" points="644.72 1.58 672.27 1.58 672.27 76.91 631.44 76.91 644.72 1.58"/></svg>