<svg width="110" height="85" viewBox="0 0 110 85" version="1.1" xmlns="http://www.w3.org/2000/svg" xmlns:xlink="http://www.w3.org/1999/xlink">
<title>Icon-Handcuffs</title>
<desc>Created using Figma</desc>
<g id="Canvas" transform="translate(-1671 -2241)">
<g id="Icon-Handcuffs">
<g id="Group">
<g id="Union">
<use xlink:href="#path0_fill" transform="translate(1671 2241)" fill="url(#paint0_linear)"/>
</g>
<g id="Ellipse 3.1">
<use xlink:href="#path1_stroke" transform="translate(1690 2299)" fill="#F0F0F0"/>
</g>
<g id="Ellipse 3.4">
<use xlink:href="#path1_stroke" transform="translate(1732 2306)" fill="#F0F0F0"/>
</g>
<g id="Ellipse 3.2">
<use xlink:href="#path2_stroke" transform="translate(1694 2312)" fill="#F0F0F0"/>
</g>
<g id="Ellipse 3.3">
<use xlink:href="#path2_stroke" transform="matrix(-1 1.22465e-16 -1.22465e-16 -1 1705 2324)" fill="#F0F0F0"/>
</g>
<g id="Ellipse 3.5">
<use xlink:href="#path2_stroke" transform="matrix(-0.258819 -0.965926 0.965926 -0.258819 1720.9 2325.21)" fill="#F0F0F0"/>
</g>
</g>
</g>
</g>
<defs>
<linearGradient id="paint0_linear" x1="0" y1="0" x2="1" y2="0" gradientUnits="userSpaceOnUse" gradientTransform="matrix(111.918 58.5512 -111.653 115.703 55.8263 -56.4156)">
<stop offset="0" stop-color="#0072FF"/>
<stop offset="1" stop-color="#00C3FF"/>
</linearGradient>
<path id="path0_fill" fill-rule="evenodd" d="M 2 23.0833C 2 11.4358 11.4056 2 23 2C 34.5944 2 44 11.4358 44 23.0833C 44 30.3162 40.3734 36.6975 34.8438 40.4961C 34.2836 40.8984 33.7572 41.6316 33.5718 42.3225L 31.1953 52.2332C 31.0875 52.6829 30.6853 53 30.2229 53L 14.5078 53C 14.0016 53 13.5752 52.6216 13.515 52.1191L 12.3726 42.5906C 12.2644 41.6882 11.7554 40.9138 11.0475 40.4209C 5.57898 36.6135 2 30.2686 2 23.0833ZM 23 0C 10.2939 0 0 10.3384 0 23.0833C 0 30.9485 3.92053 37.8958 9.90466 42.0623C 10.1827 42.2559 10.3519 42.5381 10.3868 42.8289L 11.5292 52.3572C 11.71 53.865 12.9891 55 14.5078 55L 30.2229 55C 31.6102 55 32.8167 54.0486 33.1401 52.6995L 35.5167 42.7888C 35.5739 42.4683 35.6793 42.3311 35.9763 42.1445C 42.0275 37.9875 46 31.0005 46 23.0833C 46 10.3384 35.7061 0 23 0ZM 37.1334 23.0833C 37.1334 30.9299 30.7986 37.2778 23 37.2778C 15.2015 37.2778 8.8667 30.9299 8.8667 23.0833C 8.8667 15.2368 15.2015 8.88892 23 8.88892C 30.7986 8.88892 37.1334 15.2368 37.1334 23.0833ZM 39.1334 23.0833C 39.1334 32.0273 31.9103 39.2778 23 39.2778C 14.0898 39.2778 6.8667 32.0273 6.8667 23.0833C 6.8667 14.1394 14.0898 6.88892 23 6.88892C 31.9103 6.88892 39.1334 14.1394 39.1334 23.0833ZM 96.75 16.866C 86.7089 11.0688 73.8456 14.5376 68.0217 24.6248C 64.4292 30.8474 64.3562 38.1316 67.1882 44.1631C 67.5549 44.9441 67.6084 45.8694 67.251 46.7048L 63.4762 55.5278C 63.277 55.9934 63.4572 56.5342 63.8955 56.7874L 77.5051 64.6448C 77.9056 64.876 78.4125 64.8025 78.7307 64.4668L 85.7441 57.0723C 86.2502 56.5667 87.0725 56.1951 87.7589 56.1265C 94.4471 55.6016 100.778 51.8884 104.395 45.6248C 110.219 35.5376 106.791 22.6633 96.75 16.866ZM 66.2897 23.6248C 72.6622 12.5872 86.7461 8.78101 97.75 15.134C 108.754 21.4871 112.499 35.5872 106.127 46.6248C 102.168 53.4812 95.2344 57.5459 87.9154 58.1204C 87.5649 58.1333 87.405 58.1995 87.1953 58.4485L 80.1819 65.8433C 79.2271 66.8499 77.7067 67.0706 76.5051 66.3767L 62.8955 58.5193C 61.5803 57.76 61.04 56.1375 61.6373 54.7412L 65.4122 45.9182C 65.5273 45.6489 65.522 45.3201 65.3779 45.0132C 62.2788 38.4128 62.3571 30.4363 66.2897 23.6248ZM 98.4481 42.1914C 94.5249 48.9866 85.8647 51.3167 79.1111 47.4175C 72.3573 43.5181 70.0452 34.8533 73.9685 28.0581C 77.8917 21.2627 86.5518 18.9326 93.3055 22.832C 100.059 26.7312 102.371 35.396 98.4481 42.1914ZM 100.18 43.1914C 95.7081 50.937 85.8275 53.6045 78.1111 49.1494C 70.3947 44.6943 67.7644 34.8037 72.2365 27.0581C 76.7084 19.3123 86.589 16.6448 94.3055 21.0999C 102.022 25.5549 104.652 35.4456 100.18 43.1914Z"/>
<path id="path1_stroke" d="M 7 4C 7 5.65685 5.65685 7 4 7L 4 9C 6.76142 9 9 6.76142 9 4L 7 4ZM 4 7C 2.34315 7 1 5.65685 1 4L -1 4C -1 6.76142 1.23858 9 4 9L 4 7ZM 1 4C 1 2.34315 2.34315 1 4 1L 4 -1C 1.23858 -1 -1 1.23858 -1 4L 1 4ZM 4 1C 5.65685 1 7 2.34315 7 4L 9 4C 9 1.23858 6.76142 -1 4 -1L 4 1Z"/>
<path id="path2_stroke" d="M 4 9C 4.55228 9 5 8.55229 5 8C 5 7.44772 4.55228 7 4 7L 4 9ZM 4 1C 4.55228 1 5 0.552285 5 0C 5 -0.552285 4.55228 -1 4 -1L 4 1ZM 4 7C 2.34315 7 1 5.65685 1 4L -1 4C -1 6.76142 1.23858 9 4 9L 4 7ZM 1 4C 1 2.34315 2.34315 1 4 1L 4 -1C 1.23858 -1 -1 1.23858 -1 4L 1 4Z"/>
</defs>
</svg>
