<svg width="88" height="112" viewBox="0 0 88 112" version="1.1" xmlns="http://www.w3.org/2000/svg" xmlns:xlink="http://www.w3.org/1999/xlink">
<title>Icon-Security</title>
<desc>Created using Figma</desc>
<g id="Canvas" transform="translate(-3311 -2228)">
<g id="Icon-Security">
<g id="Lock">
<g id="Union">
<use xlink:href="#path0_fill" transform="translate(3311 2228)" fill="url(#paint0_linear)"/>
</g>
<g id="Union">
<mask id="mask0_outline_out">
<rect id="mask0_outline_inv" fill="white" x="-2" y="-2" width="23" height="35" transform="translate(3346 2292)"/>
<use xlink:href="#path1_fill" fill="black" transform="translate(3346 2292)"/>
</mask>
<g mask="url(#mask0_outline_out)">
<use xlink:href="#path2_stroke_2x" transform="translate(3346 2292)" fill="#F0F0F0"/>
</g>
</g>
<g id="Ellipse">
<use xlink:href="#path3_fill" transform="translate(3353 2299)" fill="#F0F0F0"/>
</g>
</g>
</g>
</g>
<defs>
<linearGradient id="paint0_linear" x1="0" y1="0" x2="1" y2="0" gradientUnits="userSpaceOnUse" gradientTransform="matrix(99.4531 120.234 -99.4531 235.659 41.7734 -117.752)">
<stop offset="0" stop-color="#0072FF"/>
<stop offset="1" stop-color="#00C3FF"/>
</linearGradient>
<path id="path0_fill" fill-rule="evenodd" d="M 73 47L 73 31C 73 14.9836 60.0164 2 44 2C 27.9836 2 15 14.9836 15 31L 15 47L 27 47L 27 31C 27 21.6111 34.6111 14 44 14C 53.3889 14 61 21.6111 61 31L 61 47L 73 47ZM 61 49L 59 49L 29 49L 27 49L 15 49L 13 49L 2 49L 2 110L 86 110L 86 49L 75 49L 73 49L 61 49ZM 59 47L 59 31C 59 22.7158 52.2842 16 44 16C 35.7158 16 29 22.7158 29 31L 29 47L 59 47ZM 13 31L 13 47L 2 47C 0.895508 47 0 47.8955 0 49L 0 110C 0 111.104 0.895508 112 2 112L 86 112C 87.1045 112 88 111.104 88 110L 88 49C 88 47.8955 87.1045 47 86 47L 75 47L 75 31C 75 13.8792 61.1208 0 44 0C 26.8792 0 13 13.8792 13 31Z"/>
<path id="path1_fill" fill-rule="evenodd" d="M 13.1538 18.4551C 16.5869 17.009 19 13.5869 19 9.59521C 19 4.2959 14.7468 0 9.5 0C 4.25317 0 0 4.2959 0 9.59521C 0 13.5869 2.41309 17.009 5.84619 18.4551L 5.84619 27.3462C 5.84619 29.3643 7.48218 31 9.5 31C 11.5181 31 13.1538 29.3643 13.1538 27.3462L 13.1538 18.4551Z"/>
<path id="path2_stroke_2x" d="M 13.1538 18.4551L 12.3775 16.6119L 11.1538 17.1273L 11.1538 18.4551L 13.1538 18.4551ZM 5.84619 18.4551L 7.84619 18.4551L 7.84619 17.1273L 6.62255 16.6119L 5.84619 18.4551ZM 17 9.59521C 17 12.7634 15.0867 15.4708 12.3775 16.6119L 13.9302 20.2982C 18.0872 18.5473 21 14.4104 21 9.59521L 17 9.59521ZM 9.5 2C 13.6235 2 17 5.3816 17 9.59521L 21 9.59521C 21 3.21019 15.8702 -2 9.5 -2L 9.5 2ZM 2 9.59521C 2 5.3816 5.37651 2 9.5 2L 9.5 -2C 3.12983 -2 -2 3.21019 -2 9.59521L 2 9.59521ZM 6.62255 16.6119C 3.91334 15.4708 2 12.7634 2 9.59521L -2 9.59521C -2 14.4104 0.912828 18.5473 5.06984 20.2982L 6.62255 16.6119ZM 7.84619 27.3462L 7.84619 18.4551L 3.84619 18.4551L 3.84619 27.3462L 7.84619 27.3462ZM 9.5 29C 8.58666 29 7.84619 28.2596 7.84619 27.3462L 3.84619 27.3462C 3.84619 30.4689 6.3777 33 9.5 33L 9.5 29ZM 11.1538 27.3462C 11.1538 28.2597 10.4135 29 9.5 29L 9.5 33C 12.6226 33 15.1538 30.4688 15.1538 27.3462L 11.1538 27.3462ZM 11.1538 18.4551L 11.1538 27.3462L 15.1538 27.3462L 15.1538 18.4551L 11.1538 18.4551Z"/>
<path id="path3_fill" d="M 5 2.5C 5 3.88071 3.88071 5 2.5 5C 1.11929 5 0 3.88071 0 2.5C 0 1.11929 1.11929 0 2.5 0C 3.88071 0 5 1.11929 5 2.5Z"/>
</defs>
</svg>
