<svg width="160" height="108" viewBox="0 0 160 108" version="1.1" xmlns="http://www.w3.org/2000/svg" xmlns:xlink="http://www.w3.org/1999/xlink">
<title>Icon-Privacy</title>
<desc>Created using Figma</desc>
<g id="Canvas" transform="translate(-4055 -1708)">
<g id="Icon-Privacy">
<g id="Eye">
<g id="Union">
<mask id="mask0_outline_ins">
<use xlink:href="#path0_fill" fill="white" transform="translate(4055 1717)"/>
</mask>
<g mask="url(#mask0_outline_ins)">
<use xlink:href="#path1_stroke_2x" transform="translate(4055 1717)" fill="url(#paint0_linear)"/>
</g>
</g>
<g id="Ellipse 3.1">
<use xlink:href="#path2_stroke" transform="matrix(0.707107 0.707107 -0.707107 0.707107 4135 1743.2)" fill="#F0F0F0"/>
</g>
<g id="Line">
<use xlink:href="#path3_stroke" transform="matrix(0.707107 -0.707107 0.707107 0.707107 4083 1816.03)" fill="#F0F0F0"/>
</g>
</g>
</g>
</g>
<defs>
<linearGradient id="paint0_linear" x1="0" y1="0" x2="1" y2="0" gradientUnits="userSpaceOnUse" gradientTransform="matrix(160 92 -160 278.261 80 -139.13)">
<stop offset="0" stop-color="#0072FF"/>
<stop offset="1" stop-color="#00C3FF"/>
</linearGradient>
<path id="path0_fill" fill-rule="evenodd" d="M 80 92C 25.7732 92 0 46 0 46C 0 46 24.6621 0 80 0C 135.338 0 160 46 160 46C 160 46 134.227 92 80 92ZM 2.89453 46.8931C 2.66772 46.5413 2.47632 46.2373 2.31738 45.98C 2.46875 45.7257 2.65063 45.426 2.86597 45.0798C 3.6355 43.8427 4.77148 42.111 6.32837 39.9987C 9.46753 35.7355 14.1382 30.147 20.5688 24.5022C 33.3843 13.2371 52.9331 2 80 2C 107.067 2 126.616 13.2371 139.431 24.5022C 145.862 30.147 150.532 35.7355 153.671 39.9987C 155.229 42.111 156.365 43.8427 157.134 45.0798C 157.35 45.426 157.531 45.7257 157.683 45.98C 157.523 46.2373 157.333 46.5413 157.105 46.8931C 156.308 48.1313 155.132 49.8661 153.531 51.9806C 150.304 56.2461 145.526 61.8418 139.022 67.491C 126.056 78.7692 106.504 90 80 90C 53.4961 90 33.9441 78.7692 20.9775 67.491C 14.4744 61.8418 9.69604 56.2461 6.46924 51.9806C 4.86816 49.8661 3.69238 48.1313 2.89453 46.8931ZM 112 46C 112 63.6731 97.6733 78 80 78C 62.3267 78 48 63.6731 48 46C 48 28.3269 62.3267 14 80 14C 97.6733 14 112 28.3269 112 46ZM 114 46C 114 64.7777 98.7778 80 80 80C 61.2222 80 46 64.7777 46 46C 46 27.2223 61.2222 12 80 12C 98.7778 12 114 27.2223 114 46Z"/>
<path id="path1_stroke_2x" d="M 0 46L -0.881326 45.5275L -1.14033 46.0106L -0.872399 46.4888L 0 46ZM 160 46L 160.872 46.4888L 161.14 46.0106L 160.881 45.5275L 160 46ZM 2.31738 45.98L 1.45811 45.4685L 1.14792 45.9895L 1.46658 46.5055L 2.31738 45.98ZM 2.89453 46.8931L 3.73515 46.3514L 3.73501 46.3512L 2.89453 46.8931ZM 2.86597 45.0798L 2.01683 44.5517L 2.86597 45.0798ZM 6.32837 39.9987L 7.13334 40.592L 7.13362 40.5916L 6.32837 39.9987ZM 20.5688 24.5022L 21.2285 25.2537L 21.2291 25.2533L 20.5688 24.5022ZM 139.431 24.5022L 138.771 25.2533L 138.771 25.2537L 139.431 24.5022ZM 153.671 39.9987L 152.866 40.5916L 152.866 40.592L 153.671 39.9987ZM 157.134 45.0798L 156.285 45.6078L 156.285 45.6089L 157.134 45.0798ZM 157.683 45.98L 158.533 46.5061L 158.852 45.9899L 158.542 45.4685L 157.683 45.98ZM 157.105 46.8931L 156.265 46.3508L 156.265 46.3514L 157.105 46.8931ZM 153.531 51.9806L 152.734 51.3769L 152.733 51.3773L 153.531 51.9806ZM 139.022 67.491L 138.367 66.736L 138.366 66.7364L 139.022 67.491ZM 20.9775 67.491L 21.6338 66.7364L 21.6333 66.736L 20.9775 67.491ZM 6.46924 51.9806L 7.26675 51.3773L 7.26648 51.3769L 6.46924 51.9806ZM 0 46C -0.872399 46.4888 -0.872086 46.4894 -0.871675 46.4901C -0.871407 46.4906 -0.870896 46.4915 -0.870359 46.4924C -0.869428 46.4941 -0.867814 46.4969 -0.86595 46.5002C -0.862511 46.5063 -0.85691 46.5162 -0.850024 46.5283C -0.836834 46.5515 -0.81613 46.5876 -0.789705 46.6332C -0.738044 46.7224 -0.65856 46.858 -0.554967 47.0308C -0.350263 47.3722 -0.0384147 47.8801 0.3728 48.5183C 1.18985 49.7859 2.4298 51.6138 4.07695 53.7909C 7.35881 58.1269 12.344 63.9541 19.0087 69.7545C 32.3578 81.3654 52.5818 93 80 93L 80 91C 53.1913 91 33.4154 79.6346 20.3212 68.2455C 13.7642 62.5459 8.91696 56.8731 5.67176 52.5841C 4.05538 50.4487 2.85815 48.6828 2.05391 47.4348C 1.65447 46.8152 1.35965 46.3348 1.16034 46.0024C 1.06192 45.8383 0.990063 45.7156 0.940883 45.6307C 0.916888 45.5893 0.899798 45.5594 0.887798 45.5384C 0.882089 45.5284 0.878247 45.5216 0.875391 45.5165C 0.874108 45.5142 0.873361 45.5129 0.872719 45.5118C 0.872469 45.5113 0.87239 45.5112 0.872265 45.511C 0.872283 45.511 0.872399 45.5112 0 46ZM 80 -1C 52.03 -1 31.8045 10.6315 18.5881 22.2489C 11.9913 28.0515 7.10845 33.8823 3.91297 38.2194C 2.30889 40.3976 1.10761 42.2271 0.318664 43.4952C -0.0785322 44.1339 -0.379098 44.6425 -0.575967 44.9841C -0.675655 45.1572 -0.752125 45.2931 -0.801729 45.3824C -0.827131 45.4281 -0.847062 45.4644 -0.859726 45.4877C -0.866352 45.4998 -0.87176 45.5098 -0.875067 45.5159C -0.876866 45.5192 -0.878433 45.5221 -0.879331 45.5238C -0.879852 45.5247 -0.880351 45.5257 -0.880612 45.5262C -0.881016 45.5269 -0.881326 45.5275 0 46C 0.881326 46.4725 0.881204 46.4727 0.881176 46.4728C 0.881292 46.4726 0.881358 46.4725 0.881589 46.472C 0.882197 46.4709 0.88289 46.4696 0.884104 46.4674C 0.886824 46.4623 0.890459 46.4556 0.895898 46.4457C 0.907364 46.4247 0.923651 46.395 0.9466 46.3537C 0.9937 46.2689 1.06247 46.1466 1.15692 45.9827C 1.34833 45.6505 1.63166 45.1708 2.0169 44.5516C 2.79283 43.3041 3.9506 41.5399 5.52325 39.4056C 8.68122 35.1177 13.4225 29.4485 19.9085 23.7511C 32.8576 12.3685 52.6321 1 80 1L 80 -1ZM 160 46C 160.881 45.5275 160.881 45.5269 160.881 45.5262C 160.88 45.5257 160.88 45.5247 160.879 45.5238C 160.878 45.5221 160.877 45.5192 160.875 45.5159C 160.872 45.5098 160.866 45.4998 160.86 45.4877C 160.847 45.4644 160.827 45.4281 160.802 45.3824C 160.752 45.2931 160.676 45.1572 160.576 44.9841C 160.379 44.6425 160.079 44.1339 159.681 43.4952C 158.892 42.2271 157.691 40.3976 156.087 38.2194C 152.892 33.8823 148.009 28.0515 141.412 22.2489C 128.196 10.6315 107.97 -1 80 -1L 80 1C 107.368 1 127.142 12.3685 140.091 23.7511C 146.577 29.4485 151.319 35.1177 154.477 39.4056C 156.049 41.5399 157.207 43.3041 157.983 44.5516C 158.368 45.1708 158.652 45.6505 158.843 45.9827C 158.938 46.1466 159.006 46.2689 159.053 46.3537C 159.076 46.395 159.093 46.4247 159.104 46.4457C 159.11 46.4556 159.113 46.4623 159.116 46.4674C 159.117 46.4696 159.118 46.4709 159.118 46.472C 159.119 46.4725 159.119 46.4726 159.119 46.4728C 159.119 46.4727 159.119 46.4725 160 46ZM 80 93C 107.418 93 127.642 81.3654 140.991 69.7545C 147.656 63.9541 152.641 58.1269 155.923 53.7909C 157.57 51.6138 158.81 49.7859 159.627 48.5183C 160.038 47.8801 160.35 47.3722 160.555 47.0308C 160.659 46.858 160.738 46.7224 160.79 46.6332C 160.816 46.5876 160.837 46.5515 160.85 46.5283C 160.857 46.5162 160.863 46.5063 160.866 46.5002C 160.868 46.4969 160.869 46.4941 160.87 46.4924C 160.871 46.4915 160.871 46.4906 160.872 46.4901C 160.872 46.4894 160.872 46.4888 160 46C 159.128 45.5112 159.128 45.511 159.128 45.511C 159.128 45.5112 159.128 45.5113 159.127 45.5118C 159.127 45.5129 159.126 45.5142 159.125 45.5165C 159.122 45.5216 159.118 45.5283 159.112 45.5384C 159.1 45.5594 159.083 45.5893 159.059 45.6307C 159.01 45.7156 158.938 45.8383 158.84 46.0024C 158.64 46.3348 158.346 46.8152 157.946 47.4348C 157.142 48.6828 155.945 50.4487 154.328 52.5841C 151.083 56.8731 146.236 62.5459 139.679 68.2455C 126.585 79.6346 106.809 91 80 91L 80 93ZM 1.46658 46.5055C 1.62781 46.7665 1.82437 47.0786 2.05405 47.4349L 3.73501 46.3512C 3.51107 46.0039 3.32482 45.7081 3.16818 45.4545L 1.46658 46.5055ZM 2.01683 44.5517C 1.79862 44.9025 1.61167 45.2105 1.45811 45.4685L 3.17665 46.4915C 3.32583 46.2409 3.50265 45.9495 3.71511 45.608L 2.01683 44.5517ZM 5.5234 39.4053C 3.95062 41.5398 2.79279 43.3043 2.01683 44.5517L 3.71511 45.608C 4.4782 44.381 5.59235 42.6821 7.13334 40.592L 5.5234 39.4053ZM 19.9092 23.7507C 13.4226 29.4485 8.68088 35.1181 5.52312 39.4057L 7.13362 40.5916C 10.2542 36.3529 14.8538 30.8455 21.2285 25.2537L 19.9092 23.7507ZM 80 1C 52.6321 1 32.8577 12.3685 19.9086 23.7511L 21.2291 25.2533C 33.9108 14.1056 53.2341 3 80 3L 80 1ZM 140.091 23.7511C 127.142 12.3685 107.368 1 80 1L 80 3C 106.766 3 126.089 14.1056 138.771 25.2533L 140.091 23.7511ZM 154.477 39.4057C 151.319 35.1181 146.577 29.4485 140.091 23.7507L 138.771 25.2537C 145.146 30.8454 149.746 36.3529 152.866 40.5916L 154.477 39.4057ZM 157.983 44.5519C 157.208 43.3044 156.049 41.5398 154.476 39.4053L 152.866 40.592C 154.408 42.6822 155.522 44.381 156.285 45.6078L 157.983 44.5519ZM 158.542 45.4685C 158.388 45.2108 158.202 44.9023 157.982 44.5508L 156.285 45.6089C 156.498 45.9497 156.674 46.2406 156.823 46.4915L 158.542 45.4685ZM 157.946 47.4353C 158.176 47.0783 158.372 46.7663 158.533 46.5061L 156.832 45.4539C 156.675 45.7083 156.489 46.0042 156.265 46.3508L 157.946 47.4353ZM 154.328 52.5843C 155.945 50.4486 157.142 48.6827 157.946 47.4347L 156.265 46.3514C 155.473 47.58 154.319 49.2835 152.734 51.3769L 154.328 52.5843ZM 139.678 68.2459C 146.236 62.5459 151.083 56.8727 154.328 52.5839L 152.733 51.3773C 149.524 55.6195 144.816 61.1377 138.367 66.736L 139.678 68.2459ZM 80 91C 106.809 91 126.584 79.6346 139.679 68.2455L 138.366 66.7364C 125.527 77.9037 106.199 89 80 89L 80 91ZM 20.3213 68.2455C 33.4154 79.6346 53.1914 91 80 91L 80 89C 53.8008 89 34.4728 77.9037 21.6338 66.7364L 20.3213 68.2455ZM 5.67173 52.5839C 8.91672 56.8727 13.7643 62.5459 20.3217 68.2459L 21.6333 66.736C 15.1845 61.1377 10.4754 55.6195 7.26675 51.3773L 5.67173 52.5839ZM 2.05391 47.4347C 2.85813 48.6827 4.05538 50.4486 5.672 52.5843L 7.26648 51.3769C 5.68095 49.2835 4.52664 47.58 3.73515 46.3514L 2.05391 47.4347ZM 80 79C 98.2256 79 113 64.2254 113 46L 111 46C 111 63.1208 97.121 77 80 77L 80 79ZM 47 46C 47 64.2254 61.7744 79 80 79L 80 77C 62.8789 77 49 63.1208 49 46L 47 46ZM 80 13C 61.7744 13 47 27.7746 47 46L 49 46C 49 28.8792 62.8789 15 80 15L 80 13ZM 113 46C 113 27.7746 98.2256 13 80 13L 80 15C 97.121 15 111 28.8792 111 46L 113 46ZM 80 81C 99.3301 81 115 65.33 115 46L 113 46C 113 64.2254 98.2255 79 80 79L 80 81ZM 45 46C 45 65.33 60.6699 81 80 81L 80 79C 61.7745 79 47 64.2254 47 46L 45 46ZM 80 11C 60.6699 11 45 26.67 45 46L 47 46C 47 27.7746 61.7745 13 80 13L 80 11ZM 115 46C 115 26.67 99.3301 11 80 11L 80 13C 98.2255 13 113 27.7746 113 46L 115 46Z"/>
<path id="path2_stroke" d="M 14 27C 6.8203 27 1 21.1797 1 14L -1 14C -1 22.2843 5.71573 29 14 29L 14 27ZM 1 14C 1 6.8203 6.8203 1 14 1L 14 -1C 5.71573 -1 -1 5.71573 -1 14L 1 14Z"/>
<path id="path3_stroke" d="M 1 -2C 0.447715 -2 0 -1.55228 0 -1C 0 -0.447715 0.447715 0 1 0L 1 -2ZM 149 0C 149.552 0 150 -0.447715 150 -1C 150 -1.55228 149.552 -2 149 -2L 149 0ZM 1 0L 149 0L 149 -2L 1 -2L 1 0Z"/>
</defs>
</svg>
