<svg width="140" height="108" viewBox="0 0 140 108" version="1.1" xmlns="http://www.w3.org/2000/svg" xmlns:xlink="http://www.w3.org/1999/xlink">
<title>Icon-Privacy</title>
<desc>Created using Figma</desc>
<g id="Canvas" transform="translate(-3675 -1710)">
<g id="Icon-Privacy">
<g id="Group">
<g id="Union">
<use xlink:href="#path0_fill" transform="translate(3675 1727)" fill="url(#paint0_linear)"/>
</g>
<g id="Line">
<use xlink:href="#path1_stroke" transform="matrix(-0.70247 0.711713 -0.70247 -0.711713 3797.37 1710)" fill="#F0F0F0"/>
</g>
</g>
</g>
</g>
<defs>
<linearGradient id="paint0_linear" x1="0" y1="0" x2="1" y2="0" gradientUnits="userSpaceOnUse" gradientTransform="matrix(163.148 83.353 -163.148 83.353 81.5742 -41.6765)">
<stop offset="0" stop-color="#0072FF"/>
<stop offset="1" stop-color="#00C3FF"/>
</linearGradient>
<path id="path0_fill" fill-rule="evenodd" d="M 2 2L 138 2L 138 70L 2 70L 2 2ZM 0 2C 0 0.895386 0.895508 0 2 0L 138 0C 139.104 0 140 0.895386 140 2L 140 70C 140 71.1046 139.104 72 138 72L 2 72C 0.895508 72 0 71.1046 0 70L 0 2ZM 45 36C 45 22.1929 56.1929 11 70 11C 77.2097 11 83.7053 14.0507 88.2693 18.9344L 89.7307 17.5688C 84.8042 12.2972 77.7864 9 70 9C 55.0884 9 43 21.0883 43 36C 43 43.9127 46.405 51.0315 51.8267 55.9685L 53.1733 54.4897C 48.1504 49.9158 45 43.3265 45 36ZM 18 58C 18 60.2091 16.2092 62 14 62C 11.7908 62 10 60.2091 10 58C 10 55.7909 11.7908 54 14 54C 16.2092 54 18 55.7909 18 58ZM 14 18C 16.2092 18 18 16.2091 18 14C 18 11.7909 16.2092 10 14 10C 11.7908 10 10 11.7909 10 14C 10 16.2091 11.7908 18 14 18Z"/>
<path id="path1_stroke" d="M 1 -2C 0.447715 -2 0 -1.55228 0 -1C 0 -0.447715 0.447715 0 1 0L 1 -2ZM 149 0C 149.552 0 150 -0.447715 150 -1C 150 -1.55228 149.552 -2 149 -2L 149 0ZM 1 0L 149 0L 149 -2L 1 -2L 1 0Z"/>
</defs>
</svg>
