<svg width="32" height="32" viewBox="0 0 32 32" version="1.1" xmlns="http://www.w3.org/2000/svg" xmlns:xlink="http://www.w3.org/1999/xlink">
<title>money-black</title>
<desc>Created using Figma</desc>
<g id="Canvas" transform="translate(-1690 -1210)">
<clipPath id="clip-0" clip-rule="evenodd">
<path d="M 1690 1210L 1722 1210L 1722 1242L 1690 1242L 1690 1210Z" fill="#FFFFFF"/>
</clipPath>
<g id="money-black" clip-path="url(#clip-0)">
<g id="Group">
<g id="Rectangle">
<mask id="mask0_outline_ins">
<use xlink:href="#path0_fill" fill="white" transform="translate(1694 1219)"/>
</mask>
<g mask="url(#mask0_outline_ins)">
<use xlink:href="#path1_stroke_2x" transform="translate(1694 1219)" fill="#1F2227"/>
</g>
</g>
<g id="Rectangle">
<use xlink:href="#path2_fill" transform="translate(1697 1222)" fill="#1F2227"/>
</g>
<g id="Ellipse">
<mask id="mask1_outline_ins">
<use xlink:href="#path3_fill" fill="white" transform="translate(1702 1222)"/>
</mask>
<g mask="url(#mask1_outline_ins)">
<use xlink:href="#path4_stroke_2x" transform="translate(1702 1222)" fill="#1F2227"/>
</g>
</g>
<g id="Rectangle">
<use xlink:href="#path2_fill" transform="translate(1697 1228)" fill="#1F2227"/>
</g>
<g id="Rectangle">
<use xlink:href="#path2_fill" transform="translate(1713 1228)" fill="#1F2227"/>
</g>
<g id="Rectangle">
<use xlink:href="#path2_fill" transform="translate(1713 1222)" fill="#1F2227"/>
</g>
</g>
</g>
</g>
<defs>
<path id="path0_fill" d="M 0 2C 0 0.895431 0.895431 0 2 0L 22 0C 23.1046 0 24 0.895431 24 2L 24 12C 24 13.1046 23.1046 14 22 14L 2 14C 0.895431 14 0 13.1046 0 12L 0 2Z"/>
<path id="path1_stroke_2x" d="M 2 2L 22 2L 22 -2L 2 -2L 2 2ZM 22 2L 22 12L 26 12L 26 2L 22 2ZM 22 12L 2 12L 2 16L 22 16L 22 12ZM 2 12L 2 2L -2 2L -2 12L 2 12ZM 2 12L -2 12C -2 14.2091 -0.209139 16 2 16L 2 12ZM 22 12L 22 16C 24.2091 16 26 14.2091 26 12L 22 12ZM 22 2L 26 2C 26 -0.209139 24.2091 -2 22 -2L 22 2ZM 2 -2C -0.209139 -2 -2 -0.209139 -2 2L 2 2L 2 -2Z"/>
<path id="path2_fill" d="M 0 1C 0 0.447715 0.447715 0 1 0C 1.55228 0 2 0.447715 2 1C 2 1.55228 1.55228 2 1 2C 0.447715 2 0 1.55228 0 1Z"/>
<path id="path3_fill" d="M 8 4C 8 6.20914 6.20914 8 4 8C 1.79086 8 0 6.20914 0 4C 0 1.79086 1.79086 0 4 0C 6.20914 0 8 1.79086 8 4Z"/>
<path id="path4_stroke_2x" d="M 6 4C 6 5.10457 5.10457 6 4 6L 4 10C 7.31371 10 10 7.31371 10 4L 6 4ZM 4 6C 2.89543 6 2 5.10457 2 4L -2 4C -2 7.31371 0.686292 10 4 10L 4 6ZM 2 4C 2 2.89543 2.89543 2 4 2L 4 -2C 0.686292 -2 -2 0.686292 -2 4L 2 4ZM 4 2C 5.10457 2 6 2.89543 6 4L 10 4C 10 0.686292 7.31371 -2 4 -2L 4 2Z"/>
</defs>
</svg>
