<svg width="618" height="754" xmlns="http://www.w3.org/2000/svg" xmlns:xlink="http://www.w3.org/1999/xlink">
  <use xlink:href="#path0_stroke" transform="rotate(180 142 259)" fill="url(#paint0_linear)"/>
  <g transform="translate(-1435 -541)">
    <use xlink:href="#path1_fill" transform="translate(1435 769)" fill="#FBFBFB" fill-opacity=".02"/>
    <mask id="a">
      <use xlink:href="#path1_fill" fill="#fff" transform="translate(1435 769)"/>
    </mask>
    <g mask="url(#a)">
      <use xlink:href="#path2_stroke_2x" transform="translate(1435 769)" fill="url(#paint2_linear)"/>
    </g>
  </g>
  <g>
    <g transform="translate(-1435 -541)">
      <use xlink:href="#path3_fill" transform="translate(1653 541)" fill="#FBFBFB" fill-opacity=".02"/>
      <mask id="b">
        <use xlink:href="#path3_fill" fill="#fff" transform="translate(1653 541)"/>
      </mask>
      <g mask="url(#b)">
        <use xlink:href="#path4_stroke_2x" transform="translate(1653 541)" fill="url(#paint4_linear)"/>
      </g>
    </g>
    <use xlink:href="#path5_stroke" transform="rotate(90 124.5 312.5)" fill="url(#paint5_linear)"/>
  </g>
  <defs>
    <linearGradient id="paint0_linear" x2="1" gradientUnits="userSpaceOnUse" gradientTransform="matrix(41 -53 41 21.1413 -20.5 42.43)">
      <stop offset="0" stop-color="#0072FF"/>
      <stop offset="1" stop-color="#00C3FF"/>
    </linearGradient>
    <linearGradient id="paint2_linear" x2="1" gradientUnits="userSpaceOnUse" gradientTransform="matrix(526 526 -526 526 263 -263)">
      <stop offset="0" stop-color="#0072FF"/>
      <stop offset="1" stop-color="#00C3FF"/>
    </linearGradient>
    <linearGradient id="paint4_linear" x2="1" gradientUnits="userSpaceOnUse" gradientTransform="matrix(400 400 -400 400 200 -200)">
      <stop offset="0" stop-color="#0072FF"/>
      <stop offset="1" stop-color="#00C3FF"/>
    </linearGradient>
    <linearGradient id="paint5_linear" x2="1" gradientUnits="userSpaceOnUse" gradientTransform="matrix(24 -38 24 15.1579 -12 30.421)">
      <stop offset="0" stop-color="#0072FF"/>
      <stop offset="1" stop-color="#00C3FF"/>
    </linearGradient>
    <path id="path0_stroke" d="M0 0v-1h-1v1h1zm24 0h1v-1h-1v1zm17 19h1v-1h-1v1zm0 24v1h1v-1h-1zM0 53h-1v1h1v-1zm24 0v1h1v-1h-1zM23 0v19h2V0h-2zm1 20h17v-2H24v2zm17 22H24v2h17v-2zM1 53V0h-2v53h2zM0 1h12v-2H0v2zm12 0h12v-2H12v2zm0 51H0v2h12v-2zm28-33v12h2V19h-2zm0 12v12h2V31h-2zM11 0v31h2V0h-2zm0 31v22h2V31h-2zm30-1H12v2h29v-2zM23.293 18.293l-12 12 1.414 1.414 12-12-1.414-1.414zm1.414 24l-12-12-1.414 1.414 12 12 1.414-1.414zM23 43v10h2V43h-2zm1 9H12v2h12v-2z"/>
    <path id="path1_fill" d="M526 263c0 145.251-117.749 263-263 263S0 408.251 0 263 117.749 0 263 0s263 117.749 263 263z"/>
    <path id="path2_stroke_2x" d="M524 263c0 144.146-116.854 261-261 261v4c146.355 0 265-118.645 265-265h-4zM263 524C118.854 524 2 407.146 2 263h-4c0 146.355 118.645 265 265 265v-4zM2 263C2 118.854 118.854 2 263 2v-4C116.645-2-2 116.645-2 263h4zM263 2c144.146 0 261 116.854 261 261h4C528 116.645 409.355-2 263-2v4z"/>
    <path id="path3_fill" d="M400 200c0 110.457-89.543 200-200 200S0 310.457 0 200 89.543 0 200 0s200 89.543 200 200z"/>
    <path id="path4_stroke_2x" d="M398 200c0 109.352-88.648 198-198 198v4c111.562 0 202-90.438 202-202h-4zM200 398C90.648 398 2 309.352 2 200h-4c0 111.562 90.439 202 202 202v-4zM2 200C2 90.648 90.648 2 200 2v-4C88.439-2-2 88.439-2 200h4zM200 2c109.352 0 198 88.648 198 198h4C402 88.439 311.562-2 200-2v4z"/>
    <path id="path5_stroke" d="M0 0v-1h-1v1h1zm24 0h1v-1h-1v1zm0 38v1h1v-1h-1zM0 38h-1v1h1v-1zM16 8h-1v1h1V8zm4 0v1h1V8h-1zm0-4h1V3h-1v1zm-4 0V3h-1v1h1zM1 38V0h-2v38h2zM0 1h12v-2H0v2zm12 0h12v-2H12v2zm12 36H12v2h12v-2zm-12 0H0v2h12v-2zM23 0v38h2V0h-2zM13 38V0h-2v38h2zm3-29h4V7h-4v2zm5-1V4h-2v4h2zm-1-5h-4v2h4V3zm-5 1v4h2V4h-2z"/>
  </defs>
</svg>
